<?xml version="1.0"?>
<!-- Created with Inkscape (http://www.inkscape.org/) -->
<svg xmlns:rdf="http://www.w3.org/1999/02/22-rdf-syntax-ns#" xmlns="http://www.w3.org/2000/svg" xmlns:cc="http://creativecommons.org/ns#" xmlns:dc="http://purl.org/dc/elements/1.1/" viewBox="0 0 50 50" version="1.1">
  <title>rogrammer</title>
  <g transform="translate(0 -1002.4)">
    <g transform="matrix(0.99999739,0,0,1.0014812,1.464254e-8,-3.6257226)">
      <path style="color:#000000;" fill="#000000" d="m21.945,1047-5.3465,2.4691s-1.7534,1.3696,0.07824,2.7077,5.3401,0.9563,5.3401,0.9563l5.0102-2.4898s1.6991-2.033,0.61701-2.9793c-1.082-0.9464-6.0172-0.4635-5.6988-0.664z"/>
      <path style="enable-background:new;" fill="#000000" d="m17.339,1031.3-0.14601,1.7521-1.8982,1.0222-8.6151-0.7301v-2.4823l10.659,0.4381z"/>
      <path style="enable-background:new;" d="m3.9404,1019.5s-7.6717,2.2689-1.6062,13.142c0.10059,0.1804-1.6062-6.2787,3.2123-7.1548,4.8186-0.8761-1.1681-5.8408-1.6062-5.9867z" fill="#000000"/>
      <path style="enable-background:new;" d="m1.4243,1012.5,1.4596-0.6579,6.8634,10.879-1.9721,6.936-1.6784-0.2193-4.6727-16.938z" stroke="#000000" stroke-width="0.29020873" fill="#000000"/>
      <path style="enable-background:new;" d="m45.667,1021.7c0.58404,0.7301,0.402,5.8338-0.29204,9.491-0.55526,2.9262-4.639,6.9621-8.163,9.812-3.524,2.8498-5.5804,1.0664-5.5804,1.0664l-3.6056-8.6973,0.45894-0.3808,8.275-8.2251,8.9071-3.0664z" fill="#0b1728"/>
      <path stroke-linejoin="round" style="enable-background:new;" d="m37.239,1006.6c-2.8653,0.07-4.8828,1.8146-4.7911,5.1136l-0.01663,3.0576c-0.7894,0.1059-1.9944,0.3667-1.9944,0.9972,0,0.6005,1.2147,1.3095,2.0805,1.5265l0.04924,1.5389s1.5015,1.717,3.3481,1.9389l1.2491,3.9704,6.7532-4.2535-1.9574-4.038c0.68306-0.3075,1.6617-0.9571,2.0744-2.2775,0.66643-2.1326,0.55694-4.4333-2.1088-6.299-0.83302-0.5831-3.3841-1.3068-4.6866-1.275z" stroke="#000000" stroke-linecap="round" stroke-width="0.87062627" fill="#f6e6cc"/>
      <path style="enable-background:new;" fill="#0b1728" d="m41.726,1020.3s3.2123-0.8761,4.2344,1.4601c1.0221,2.3363,0.29204,4.6727-2.1902,5.8407-2.4823,1.1682-9.345,4.2345-9.345,4.2345s-0.29204,0.438-1.4602,0.1461c-1.1681-0.2921-2.0442-4.6727-2.1902-6.1328-0.14603-1.4601,3.0663-2.1902,4.5267-2.6283,1.4602-0.4381,6.8629-3.2123,6.4246-2.9203z"/>
      <path d="m38.295,1012.8-5.1422,0.1542-0.96132,0.046,0.526,3.1924,0.28114-0.054-0.1451-2.5938,5.1236-0.3885c1.1089-0.08,0.91648,0.8281,0.99797,1.4586,0.09394,0.7273-1.0262,0.9978-0.46254,0.9069,0.56367-0.091,1.1252-0.541,0.8434-1.9045-0.14092-0.6817-0.618-0.8365-1.0611-0.8162z" style="enable-background:new;" fill="#000c00"/>
      <path stroke-linejoin="round" style="enable-background:new;" d="m3.1772,1012,4.9646,1.0221,4.5267,15.186-4.8186,1.1681-4.6727-17.376z" stroke="#000000" stroke-linecap="round" stroke-width="0.87062627" fill="#ffffff"/>
      <path style="enable-background:new;" d="m17.882,1030.8-4.3804-1.4602-6.8629,1.4602,9.345,1.7522,1.8982-1.7522z" stroke="#000000" stroke-width="0.27260178" fill="#4d4d4d"/>
      <path stroke-linejoin="round" style="enable-background:new;" d="m27.929,1026.8c-0.66391,0.012-2.4632,0.2556-2.9378,0.5111-1.8982,1.0221-3.9387,3.327-3.9387,3.327l-0.84967-0.6389-0.0063-0.025-0.89872-0.9897c-0.11466,0.1709-4.5743-0.039-6.2859,0.1096,0,0-0.29961,1.3153,1.6879,1.3173,0.77666-0.2083,1.385-0.046,2.1378,0.1658l-2.1378,2.6102s1.1553,0.9436,2.1774-0.9546c0.21058-0.3911,1.6122-0.2108,1.8236-0.2703,0.31267,0.9812,0.77628,2.0498,1.3296,2.0498,1.0221,0,12.412-1.1716,13.142-2.9239,0.73008-1.7521-1.4606-4.526-1.6066-4.6721,0,0-0.6095,0.2149-2.6013,0.2354l-1.0356,0.1479h0.000107z" stroke="#000000" stroke-linecap="round" stroke-width="0.87062627" fill="#f6e6cc"/>
      <path style="enable-background:new;" fill="#001400" d="m35.515,1016.4c-0.06119,0.1861-0.30129,0.6512-1.2803,1.3603-0.54974,0.3982-1.204,0.4547-1.7728,0.394v0.4862c0.85716,0.2161,1.6733-0.052,2.1113-0.3755,0.61342-0.4541,0.88998-1.6269,0.94179-1.865z"/>
      <path style="color:#000000;" d="m32.355,1014.3,1.5323,0.6201s-1.058-2.4443-1.5323-0.6201z" fill="#000000"/>
      <path stroke-linejoin="round" style="color:#000000;" d="m28.292,1034-8.872,2.2802c-2.3499,0.6039-5.4934,2.7984-2.4875,6.8405,3.0057,4.0423,3.5461,5.9577,4.3116,6.5297,2.2543,1.6843,6.5816-2.8244,6.5816-2.8244l-2.8917-4.41s8.6233,0.1866,9.4524-0.021c0.82916-0.2072-5.4725-8.1879-6.0944-8.3954z" stroke="#000000" stroke-linecap="round" stroke-width="0.87062627" fill="#6c5d53"/>
      <rect ry="1.8636" style="color:#000000;" transform="matrix(0.99126969,0.13184995,-0.13207005,0.99124039,0,0)" height="13.126" width="3.2599" stroke="#000000" y="1004.9" x="181.12" stroke-width="0.34686" fill="#000000"/>
      <path style="block-progression:tb;color:#000000;text-transform:none;text-indent:0;" d="m29.547,1032.8c-2.5512,0-4.6126,2.0797-4.6126,4.6424h18.403c0-2.5624-2.0613-4.6424-4.6126-4.6424h-9.1777zm0,0.7591h9.1777c2.1447,0,3.857,1.7274,3.857,3.8833h-16.891c0-2.1559,1.7122-3.8833,3.857-3.8833z" fill="#ffffff"/>
      <path style="color:#000000;" d="m28.858,1033.4c-2.7053,0-4.879,2.1828-4.879,4.8883v2.0858c0,2.7053,2.1738,4.8883,4.879,4.8883h10.575c2.7053,0,4.879-2.183,4.879-4.8883v-2.0858c0-2.7053-2.1738-4.8883-4.879-4.8883h-10.575zm-0.66202,2.9021h12.071c1.7325,0,3.1287,1.3962,3.1287,3.1288v1.3331c0,0.5529-0.13992,1.0645-0.38998,1.5145-0.17893-0.6726-1.2404-1.1927-2.5393-1.1971l-12.506-0.037c-1.2632,0-2.3153,0.4715-2.5484,1.1155-0.21017-0.4219-0.33554-0.8913-0.33554-1.3966v-1.3332c0-1.7325,1.3872-3.1287,3.1197-3.1287z" fill="#000000"/>
      <path style="color:#000000;" fill="#000000" d="m32.122,1006.8s-0.75653,1.4654,0.37828,1.5425c1.1348,0.078,1.1726-0.3084,1.1726-0.3084s2.7992-1.0411,3.1775,0.6555c0.37828,1.6966-0.22696,1.8894-0.22696,1.8894s0.71871,0.8098,0.52958,1.3498c-0.18914,0.5397,1.513,0.077,1.513,0.077s1.3617-0.4241,1.4374,0.9254c0.07566,1.3498,0.07566,1.8897,0.07566,1.8897l2.5722,1.2724s1.513-0.6941,1.8535-2.2366c0.34044-1.5423,0.26478-4.55-1.0592-5.6298-1.3239-1.0797-4.9554-2.9305-6.8466-2.3521-1.8914,0.5783-4.2366,2.1207-4.577,0.9254z"/>
    </g>
  </g>
  <metadata>
    <rdf:RDF>
      <cc:Work>
        <dc:format>image/svg+xml</dc:format>
        <dc:type rdf:resource="http://purl.org/dc/dcmitype/StillImage"/>
        <cc:license rdf:resource="http://creativecommons.org/licenses/publicdomain/"/>
        <dc:publisher>
          <cc:Agent rdf:about="http://openclipart.org/">
            <dc:title/>
          </cc:Agent>
        </dc:publisher>
        <dc:title>rogrammer</dc:title>
        <dc:date>December 23, 2014</dc:date>
        <dc:description/>
        <dc:source/>
        <dc:creator>
          <cc:Agent>
            <dc:title>Thenanobel</dc:title>
          </cc:Agent>
        </dc:creator>
        <dc:subject>
          <rdf:Bag/>
        </dc:subject>
      </cc:Work>
      <cc:License rdf:about="http://creativecommons.org/licenses/publicdomain/">
        <cc:permits rdf:resource="http://creativecommons.org/ns#Reproduction"/>
        <cc:permits rdf:resource="http://creativecommons.org/ns#Distribution"/>
        <cc:permits rdf:resource="http://creativecommons.org/ns#DerivativeWorks"/>
      </cc:License>
    </rdf:RDF>
  </metadata>
</svg>
