<?xml version="1.0" standalone="no"?>
<!DOCTYPE svg PUBLIC "-//W3C//DTD SVG 1.1//EN" "http://www.w3.org/Graphics/SVG/1.1/DTD/svg11.dtd">
<svg xmlns="http://www.w3.org/2000/svg" width="9.7in" height="4.6in" viewBox="-2141 2141 11667 5493">
<g style="stroke-width:.025in; stroke:black; fill:none; stroke-linejoin:miter; stroke-linecap:butt;stroke-width:8">

<rect x="-2125" y="2598" width="2834" height="472" rx="0" style="stroke-width:0;  fill:#dfdfdf;"/>
<rect x="8503" y="4015" width="708" height="3307" rx="0" style="fill:#dfdfdf;"/>
<polyline points="3365,2598 3365,3070"/>
<polyline points="3189,2598 3189,3070"/>
<polyline points="3012,2598 3012,3070"/>
<polyline points="2834,2598 2834,3070"/>
<polyline points="2657,2598 2657,3070"/>
<polyline points="2480,2598 2480,3070"/>
<polyline points="2303,2598 2303,3070"/>
<polyline points="2125,2456 2125,3070"/>
<polyline points="1948,2598 1948,3070"/>
<polyline points="1772,2598 1772,3070"/>
<polyline points="1594,2598 1594,3070"/>
<polyline points="1417,2598 1417,3070"/>
<polyline points="1239,2598 1239,3070"/>
<polyline points="1063,2598 1063,3070"/>
<polyline points="886,2598 886,3070"/>
<polyline points="708,2456 708,3070"/>
<polyline points="531,2598 531,3070"/>
<polyline points="354,2598 354,3070"/>
<polyline points="177,2598 177,3070"/>
<polyline points="0,2598 0,3070"/>
<polyline points="-177,2598 -177,3070"/>
<polyline points="-353,2598 -353,3070"/>
<polyline points="-531,2598 -531,3070"/>
<polyline points="-708,2409 -708,3070"/>
<polyline points="-886,2598 -886,3070"/>
<polyline points="-1062,2598 -1062,3070"/>
<polyline points="-1239,2598 -1239,3070"/>
<polyline points="-1417,2598 -1417,3070"/>
<polyline points="-1594,2598 -1594,3070"/>
<polyline points="-1771,2598 -1771,3070"/>
<polyline points="-1948,2598 -1948,3070"/>
<polyline points="-2125,2409 -2125,3070"/>
<polyline points="3543,2456 3543,3070"/>
<polyline points="-2125,2598 3543,2598"/>
<polyline points="3543,3070 -1948,3070 -2125,3070"/>
<polyline points="9035,2598 9035,3070"/>
<polyline points="8858,2598 8858,3070"/>
<polyline points="8681,2598 8681,3070"/>
<polyline points="8503,2598 8503,3070"/>
<polyline points="8326,2598 8326,3070"/>
<polyline points="8150,2598 8150,3070"/>
<polyline points="7972,2598 7972,3070"/>
<polyline points="7795,2456 7795,3070"/>
<polyline points="7617,2598 7617,3070"/>
<polyline points="7441,2598 7441,3070"/>
<polyline points="7264,2598 7264,3070"/>
<polyline points="7086,2598 7086,3070"/>
<polyline points="6909,2598 6909,3070"/>
<polyline points="6732,2598 6732,3070"/>
<polyline points="6555,2598 6555,3070"/>
<polyline points="6377,2456 6377,3070"/>
<polyline points="6200,2598 6200,3070"/>
<polyline points="6024,2598 6024,3070"/>
<polyline points="5846,2598 5846,3070"/>
<polyline points="5669,2598 5669,3070"/>
<polyline points="5491,2598 5491,3070"/>
<polyline points="5315,2598 5315,3070"/>
<polyline points="5138,2598 5138,3070"/>
<polyline points="4960,2409 4960,3070"/>
<polyline points="4783,2598 4783,3070"/>
<polyline points="4606,2598 4606,3070"/>
<polyline points="4429,2598 4429,3070"/>
<polyline points="4251,2598 4251,3070"/>
<polyline points="4074,2598 4074,3070"/>
<polyline points="3898,2598 3898,3070"/>
<polyline points="3720,2598 3720,3070"/>
<polyline points="9212,2456 9212,3070"/>
<polyline points="3543,2598 9212,2598"/>

<polyline points="9212,3070 3720,3070 0,3070"/>

<rect x="5102" y="4488" width="1181" height="2362" rx="0" style=" fill:#dfdfdf;"/>
<rect x="3307" y="4251" width="1181" height="2362" rx="0" style=" fill:#dfdfdf;"/>
<rect x="6897" y="4724" width="1181" height="2362" rx="0" style=" fill:#dfdfdf;"/>
<rect x="1511" y="4015" width="1181" height="2362" rx="0" style=" fill:#dfdfdf;"/>
<rect x="1417" y="6850" width="1417" height="472" rx="0"/>

<rect x="8503" y="5433" width="708" height="236" rx="0" style=" fill:#dfdfdf;"/>
<rect x="5102" y="5669" width="1181" height="472" rx="0"/>
<rect x="3307" y="5433" width="1181" height="472" rx="0"/>
<rect x="6897" y="5905" width="1181" height="472" rx="0"/>
<rect x="1511" y="5196" width="1181" height="472" rx="0"/>
<rect x="-1984" y="2692" width="2551" height="283" rx="0" style="stroke-width:0; fill:#dfdfdf;"/>

<circle cx="6141" cy="5905" r="47" style="fill:blue;stroke:blue;stroke-width:32;"/>
<circle cx="4346" cy="5669" r="47" style="fill:blue;stroke:blue;stroke-width:32;"/>
<circle cx="7937" cy="6141" r="47" style="fill:blue;stroke:blue;stroke-width:32;"/>
<circle cx="2551" cy="5433" r="47" style="fill:blue;stroke:blue;stroke-width:32;"/>

<polyline points="3118,3590 2834,3779" style="stroke:blue; "/>
<polyline points="1322,3590 1039,3779" style="stroke:blue; "/>
<polyline points="1322,6566 1039,6755" style="stroke:blue; "/>
<polyline points="4913,3590 4629,3779" style="stroke:blue; "/>
<polyline points="6519,3590 6236,3779" style="stroke:blue; "/>
<polyline points="8314,3590 8031,3779" style="stroke:blue; "/>

<circle cx="1653" cy="7086" r="47" style="fill:blue;stroke:blue;stroke-width:32;"/>

<polyline points="1653,7086 1181,7086 1181,6377 1354,6377" style="stroke:blue; "/>
<polygon points="1355 6425 1512 6377 1355 6330 1355 6425" style="stroke:blue;fill:blue;"/>
<polyline points="7937,6141 8173,6141 8173,7322 8346,7322" style="stroke:blue; "/>
<polygon points="8347 7370 8504 7322 8347 7275 8347 7370" style="stroke:blue;fill:blue;"/>
<polyline points="8173,3543 8173,5669 8346,5669" style="stroke:blue; "/>
<polygon points="8347 5716 8504 5669 8347 5622 8347 5716" style="stroke:blue;fill:blue;"/>
<polyline points="9212,3070 9070,3307 8314,3307 8173,3543 8031,3307 7228,3307 7086,3070" style="stroke:blue; "/>
<polyline points="3898,3070 4015,3307 4629,3307 4771,3543 4913,3307 5385,3307 5491,3070" style="stroke:blue; "/>
<polyline points="5491,3070 5622,3307 6236,3307 6377,3543 6519,3307 6909,3307 7086,3070" style="stroke:blue; "/>
<polyline points="2303,3070 2409,3307 2834,3307 2976,3543 3118,3307 3779,3307 3898,3070" style="stroke:blue; "/>
<polyline points="708,3070 850,3307 1039,3307 1181,3543 1322,3307 2173,3307 2303,3070" style="stroke:blue; "/>
<polyline points="4771,3543 4771,6141 4944,6141" style="stroke:blue; "/>
<polygon points="4945 6188 5103 6141 4945 6094 4945 6188" style="stroke:blue;fill:blue;"/>
<polyline points="6377,3543 6377,4015 6519,4157 6519,6377 6740,6377" style="stroke:blue; "/>
<polygon points="6741 6425 6898 6377 6741 6330 6741 6425" style="stroke:blue;fill:blue;"/>
<polyline points="6141,5905 6377,5905 6377,7086 6740,7086" style="stroke:blue; "/>
<polygon points="6741 7133 6898 7086 6741 7039 6741 7133" style="stroke:blue;fill:blue;"/>
<polyline points="4346,5669 4629,5669 4629,6850 4944,6850" style="stroke:blue; "/>
<polygon points="4945 6897 5103 6850 4945 6803 4945 6897" style="stroke:blue;fill:blue;"/>
<polyline points="2598,5433 2834,5433 2834,6614 3149,6614" style="stroke:blue; "/>
<polygon points="3150 6661 3308 6614 3150 6566 3150 6661" style="stroke:blue;fill:blue;"/>
<polyline points="1181,3543 1181,5669 1401,5669" style="stroke:blue; "/>
<polygon points="1402 5716 1560 5669 1402 5622 1402 5716" style="stroke:blue;fill:blue;"/>
<polyline points="2976,3543 2976,5905 3149,5905" style="stroke:blue; "/>
<polygon points="3150 5952 3308 5905 3150 5858 3150 5952" style="stroke:blue;fill:blue;"/>

<g style="stroke-width:0; fill:black;">

<text xml:space="preserve" x="2362" y="7165" font-family="Helvetica" font-style="normal" font-weight="normal" font-size="152" text-anchor="middle">CR3</text>
<text xml:space="preserve" x="3507" y="2551" font-family="Helvetica Narrow" font-style="normal" font-weight="normal" font-size="152" text-anchor="end">32</text>
<text xml:space="preserve" x="2161" y="2551" font-family="Helvetica Narrow" font-style="normal" font-weight="normal" font-size="152" text-anchor="start">39</text>
<text xml:space="preserve" x="2090" y="2551" font-family="Helvetica Narrow" font-style="normal" font-weight="normal" font-size="152" text-anchor="end">40</text>
<text xml:space="preserve" x="744" y="2551" font-family="Helvetica Narrow" font-style="normal" font-weight="normal" font-size="152" text-anchor="start">47</text>
<text xml:space="preserve" x="672" y="2551" font-family="Helvetica Narrow" font-style="normal" font-weight="normal" font-size="152" text-anchor="end">48</text>
<text xml:space="preserve" x="-672" y="2551" font-family="Helvetica Narrow" font-style="normal" font-weight="normal" font-size="152" text-anchor="start">55</text>
<text xml:space="preserve" x="-744" y="2551" font-family="Helvetica Narrow" font-style="normal" font-weight="normal" font-size="152" text-anchor="end">56</text>
<text xml:space="preserve" x="-2090" y="2551" font-family="Helvetica Narrow" font-style="normal" font-weight="normal" font-size="152" text-anchor="start">63</text>
<text xml:space="preserve" x="9176" y="2551" font-family="Helvetica Narrow" font-style="normal" font-weight="normal" font-size="152" text-anchor="end">0</text>
<text xml:space="preserve" x="7759" y="2551" font-family="Helvetica Narrow" font-style="normal" font-weight="normal" font-size="152" text-anchor="end">8</text>
<text xml:space="preserve" x="6342" y="2551" font-family="Helvetica Narrow" font-style="normal" font-weight="normal" font-size="152" text-anchor="end">16</text>
<text xml:space="preserve" x="4924" y="2551" font-family="Helvetica Narrow" font-style="normal" font-weight="normal" font-size="152" text-anchor="end">24</text>
<text xml:space="preserve" x="3579" y="2551" font-family="Helvetica Narrow" font-style="normal" font-weight="normal" font-size="152" text-anchor="start">31</text>
<text xml:space="preserve" x="6413" y="2551" font-family="Helvetica Narrow" font-style="normal" font-weight="normal" font-size="152" text-anchor="start">15</text>
<text xml:space="preserve" x="7830" y="2551" font-family="Helvetica Narrow" font-style="normal" font-weight="normal" font-size="152" text-anchor="start">7</text>
<text xml:space="preserve" x="4996" y="2551" font-family="Helvetica Narrow" font-style="normal" font-weight="normal" font-size="152" text-anchor="start">23</text>


<g transform="translate(8976,4724) rotate(-90)" >
<text xml:space="preserve" x="0" y="0" font-family="Helvetica" font-style="normal" font-weight="normal" font-size="404" text-anchor="middle">...</text>
</g>
<g transform="translate(8976,6614) rotate(-90)" >
<text xml:space="preserve" x="0" y="0" font-family="Helvetica" font-style="normal" font-weight="normal" font-size="404" text-anchor="middle">...</text>
</g>
<g transform="translate(9448,5622) rotate(-90)" >
<text xml:space="preserve" x="0" y="0" font-family="Helvetica" font-style="normal" font-weight="normal" font-size="152" text-anchor="middle">4K memory page</text>
</g>

<text xml:space="preserve" x="-2125" y="2314" font-family="Helvetica" font-style="normal" font-weight="normal" font-size="152" text-anchor="start">Linear address:</text>
<text xml:space="preserve" x="5622" y="5905" font-family="Helvetica" font-style="normal" font-weight="normal" font-size="152" text-anchor="middle">64 bit PD</text>
<text xml:space="preserve" x="5622" y="6094" font-family="Helvetica" font-style="normal" font-weight="normal" font-size="152" text-anchor="middle">entry</text>

<g transform="translate(5723,6614) rotate(-90)" >
<text xml:space="preserve" x="0" y="0" font-family="Helvetica" font-style="normal" font-weight="normal" font-size="404" text-anchor="middle">...</text>
</g>
<g transform="translate(5723,5196) rotate(-90)" >
<text xml:space="preserve" x="0" y="0" font-family="Helvetica" font-style="normal" font-weight="normal" font-size="404" text-anchor="middle">...</text>
</g>
<text xml:space="preserve" x="5692" y="4393" font-family="Helvetica" font-style="normal" font-weight="normal" font-size="152" text-anchor="middle">page directory</text>

<g transform="translate(3928,6377) rotate(-90)" >
<text xml:space="preserve" x="0" y="0" font-family="Helvetica" font-style="normal" font-weight="normal" font-size="404" text-anchor="middle">...</text>
</g>
<g transform="translate(3928,4960) rotate(-90)" >
<text xml:space="preserve" x="0" y="0" font-family="Helvetica" font-style="normal" font-weight="normal" font-size="404" text-anchor="middle">...</text>
</g>

<text xml:space="preserve" x="3826" y="5669" font-family="Helvetica" font-style="normal" font-weight="normal" font-size="152" text-anchor="middle">PDP</text>
<text xml:space="preserve" x="3826" y="5858" font-family="Helvetica" font-style="normal" font-weight="normal" font-size="152" text-anchor="middle">entry</text>
<text xml:space="preserve" x="3874" y="3968" font-family="Helvetica" font-style="normal" font-weight="normal" font-size="152" text-anchor="middle">page-directory-</text>
<text xml:space="preserve" x="3874" y="4157" font-family="Helvetica" font-style="normal" font-weight="normal" font-size="152" text-anchor="middle">pointer table</text>
<text xml:space="preserve" x="7417" y="6141" font-family="Helvetica" font-style="normal" font-weight="normal" font-size="152" text-anchor="middle">64 bit PT</text>
<text xml:space="preserve" x="7417" y="6330" font-family="Helvetica" font-style="normal" font-weight="normal" font-size="152" text-anchor="middle">entry</text>

<g transform="translate(7519,6850) rotate(-90)" >
<text xml:space="preserve" x="0" y="0" font-family="Helvetica" font-style="normal" font-weight="normal" font-size="404" text-anchor="middle">...</text>
</g>

<g transform="translate(7519,5433) rotate(-90)" >
<text xml:space="preserve" x="0" y="0" font-family="Helvetica" font-style="normal" font-weight="normal" font-size="404" text-anchor="middle">...</text>
</g>

<text xml:space="preserve" x="7487" y="4629" font-family="Helvetica" font-style="normal" font-weight="normal" font-size="152" text-anchor="middle">page table</text>

<g transform="translate(2133,6141) rotate(-90)" >
<text xml:space="preserve" x="0" y="0" font-family="Helvetica" font-style="normal" font-weight="normal" font-size="404" text-anchor="middle">...</text>
</g>

<g transform="translate(2133,4724) rotate(-90)" >
<text xml:space="preserve" x="0" y="0" font-family="Helvetica" font-style="normal" font-weight="normal" font-size="404" text-anchor="middle">...</text>
</g>

<text x="2031" y="5433" font-family="Helvetica" font-style="normal" font-weight="normal" font-size="152" text-anchor="middle">PML4</text>
<text x="2031" y="5622" font-family="Helvetica" font-style="normal" font-weight="normal" font-size="152" text-anchor="middle">entry</text>
<text x="2078" y="3968" font-family="Helvetica" font-style="normal" font-weight="normal" font-size="152" text-anchor="middle">PML4 table</text>
<text x="3165" y="3732" fill="blue"  font-family="Helvetica" font-style="normal" font-weight="normal" font-size="152" text-anchor="start">9</text>
<text x="1370" y="3732" fill="blue"  font-family="Helvetica" font-style="normal" font-weight="normal" font-size="152" text-anchor="start">9</text>
<text x="1370" y="6708" fill="blue"  font-family="Helvetica" font-style="normal" font-weight="normal" font-size="152" text-anchor="start">40*</text>
<text x="4960" y="3732" fill="blue"  font-family="Helvetica" font-style="normal" font-weight="normal" font-size="152" text-anchor="start">9</text>
<text x="6566" y="3732" fill="blue"  font-family="Helvetica" font-style="normal" font-weight="normal" font-size="152" text-anchor="start">9</text>
<text x="8362" y="3732" fill="blue"  font-family="Helvetica" font-style="normal" font-weight="normal" font-size="152" text-anchor="start">12</text>
<text x="-709" y="2889" font-family="Helvetica" font-style="normal" font-weight="normal" font-size="152" text-anchor="middle">sign extended</text>
<text x="1181" y="7559" font-family="Helvetica" font-style="normal" font-weight="normal" font-size="152" text-anchor="start">*) 40 bits aligned to a 4-KByte boundary</text>
</g>
</g>
</svg>
