<?xml version="1.0" encoding="UTF-8" standalone="no"?>
<svg
   xmlns:dc="http://purl.org/dc/elements/1.1/"
   xmlns:cc="http://web.resource.org/cc/"
   xmlns:rdf="http://www.w3.org/1999/02/22-rdf-syntax-ns#"
   xmlns:svg="http://www.w3.org/2000/svg"
   xmlns="http://www.w3.org/2000/svg"
   xmlns:sodipodi="http://sodipodi.sourceforge.net/DTD/sodipodi-0.dtd"
   xmlns:inkscape="http://www.inkscape.org/namespaces/inkscape"
   version="1.1"
   id="Layer_1"
   x="0px"
   y="0px"
   width="231px"
   height="79px"
   viewBox="0 0 231 79"
   enable-background="new 0 0 231 79"
   xml:space="preserve"
   sodipodi:version="0.32"
   inkscape:version="0.45.1"
   sodipodi:docname="Baidu.svg"
   inkscape:output_extension="org.inkscape.output.svg.inkscape"
   sodipodi:docbase="/home/mantisears"><metadata
   id="metadata2246"><rdf:RDF><cc:Work
       rdf:about=""><dc:format>image/svg+xml</dc:format><dc:type
         rdf:resource="http://purl.org/dc/dcmitype/StillImage" /></cc:Work></rdf:RDF></metadata><defs
   id="defs2244" /><sodipodi:namedview
   inkscape:window-height="575"
   inkscape:window-width="765"
   inkscape:pageshadow="2"
   inkscape:pageopacity="0.0"
   guidetolerance="10.0"
   gridtolerance="10.0"
   objecttolerance="10.0"
   borderopacity="1.0"
   bordercolor="#666666"
   pagecolor="#ffffff"
   id="base"
   inkscape:zoom="1.2823129"
   inkscape:cx="147"
   inkscape:cy="87.802316"
   inkscape:window-x="138"
   inkscape:window-y="138"
   inkscape:current-layer="Layer_1" />
<rect
   y="0.76127321"
   width="229.33952"
   height="77.77652"
   id="rect2223"
   x="0.77984083"
   style="fill:#ffffff;fill-opacity:0" />
<g
   id="g2225"
   transform="translate(1.5596822,-5.4588862)">
	<path
   d="M 89.241,47.789 C 96.991,46.124 95.933,36.852 95.706,34.826 C 95.324,31.701 91.651,26.244 86.667,26.68 C 80.392,27.239 79.476,36.303 79.476,36.303 C 78.626,40.5 81.504,49.458 89.241,47.789 M 103.633,32.246 C 107.911,32.246 111.369,27.316 111.369,21.226 C 111.369,15.135 107.911,10.213 103.633,10.213 C 99.353,10.213 95.886,15.135 95.886,21.226 C 95.886,27.316 99.352,32.246 103.633,32.246 M 122.077,32.971 C 127.803,33.721 131.473,27.612 132.207,22.983 C 132.957,18.36 129.257,12.983 125.212,12.06 C 121.149,11.126 116.077,17.63 115.62,21.873 C 115.063,27.063 116.357,32.238 122.077,32.971 M 144.756,40.748 C 144.756,38.534 142.923,31.86 136.096,31.86 C 129.257,31.86 128.352,38.158 128.352,42.608 C 128.352,46.856 128.706,52.779 137.2,52.595 C 145.686,52.407 144.756,42.977 144.756,40.748 M 136.096,60.184 C 136.096,60.184 127.244,53.336 122.077,45.932 C 115.062,35.014 105.107,39.461 101.779,45.005 C 98.461,50.563 93.303,54.073 92.565,55.005 C 91.82,55.918 81.873,61.293 84.08,71.107 C 86.292,80.914 94.049,80.728 94.049,80.728 C 94.049,80.728 99.766,81.287 106.396,79.804 C 113.04,78.325 118.756,80.168 118.756,80.168 C 118.756,80.168 134.254,85.365 138.489,75.365 C 142.73,65.373 136.096,60.184 136.096,60.184"
   id="path2227"
   style="fill:#006cb7" />
	<path
   d="M 105.008,50.637 L 105.008,57.225 L 99.64,57.225 C 99.64,57.225 94.275,57.67 92.397,63.751 C 91.742,67.811 92.975,70.202 93.19,70.713 C 93.407,71.223 95.141,74.193 99.495,75.064 L 109.568,75.064 L 109.568,50.709 L 105.008,50.637 z M 104.927,71.067 L 100.869,71.067 C 100.869,71.067 98.042,70.92 97.181,67.665 C 96.737,66.223 97.247,64.557 97.471,63.902 C 97.676,63.246 98.625,61.73 100.582,61.147 L 104.926,61.147 L 104.927,71.067 L 104.927,71.067 z "
   id="path2229"
   style="fill:#ffffff" />
	<path
   d="M 112.037,57.816 L 112.037,70.64 C 112.037,70.64 112.247,73.832 116.747,74.994 L 128.339,74.994 L 128.339,57.815 L 123.336,57.815 L 123.336,70.712 L 118.561,70.712 C 118.561,70.712 117.035,70.49 116.748,69.263 L 116.748,57.74 L 112.037,57.816 z "
   id="path2231"
   style="fill:#ffffff" />
	<path
   d="M 183.57,49.397 L 183.57,43.99 L 147.958,43.99 L 147.912,49.476 L 163.221,49.476 L 161.786,52.757 L 148.767,52.757 L 148.767,79.886 L 179.695,79.886 C 182.929,79.886 182.642,76.621 182.642,76.621 L 182.642,52.758 L 169.603,52.758 L 170.749,49.398 L 183.57,49.398 L 183.57,49.397 z M 176.654,74.094 C 176.654,74.094 176.279,74.995 175.749,74.995 L 155.225,74.995 L 155.225,68.667 L 176.656,68.667 L 176.654,74.094 L 176.654,74.094 z M 176.619,63.441 L 155.223,63.441 L 155.223,57.507 L 176.619,57.507 L 176.619,63.441 L 176.619,63.441 z "
   id="path2233"
   style="fill:#ed1c24" />
	<path
   d="M 224.262,44.135 L 210.29,44.135 L 210.29,41.398 L 203.737,41.398 L 203.737,44 L 187.709,44 L 187.709,79.831 L 193.475,79.831 L 193.475,48.622 L 224.262,48.622 L 224.262,44.135 z M 220.494,51.551 L 220.494,49.477 L 214.861,49.477 L 214.861,51.551 L 203.273,51.551 L 203.273,49.551 L 197.937,49.551 L 197.937,51.551 L 194.331,51.551 L 194.402,55.609 L 197.937,55.609 L 197.937,63.232 L 217.429,63.232 C 220.134,63.232 220.492,60.379 220.492,60.379 L 220.492,55.608 L 224.617,55.608 L 224.617,51.549 L 220.493,51.549 L 220.493,51.551 L 220.494,51.551 z M 214.861,58.381 C 214.861,58.381 214.359,59.305 213.716,59.305 L 203.21,59.305 L 203.21,55.53 L 214.859,55.53 L 214.859,58.382 L 214.861,58.382 L 214.861,58.381 z M 195.118,68.788 L 204.09,73.992 C 203.38,74.774 200.315,75.765 200.315,75.765 L 194.333,75.765 L 194.333,79.765 L 202.455,79.765 C 204.879,79.269 209.365,76.989 209.365,76.989 C 211.221,78.694 214.79,79.404 214.79,79.404 L 224.048,79.404 L 224.048,75.414 L 217.069,75.414 C 215.188,75.133 213.499,74.06 213.499,74.06 L 224.049,68.003 L 224.049,64.722 L 195.12,64.722 L 195.12,68.787 L 195.118,68.787 L 195.118,68.788 z M 213.788,68.721 L 208.656,71.428 L 203.952,68.721 L 213.788,68.721 z "
   id="path2235"
   style="fill:#ed1c24" />
	<path
   d="M 68.72,49.84 L 76.493,49.84 L 76.493,42.992 L 68.72,42.992 L 68.72,49.84 z M 68.72,79.686 L 76.493,79.686 L 76.493,52.823 L 68.72,52.823 L 68.72,79.686 z "
   id="path2237"
   style="fill:#ed1c24" />
	<path
   d="M 56.081,52.846 L 39.497,52.803 L 39.497,58.45 L 54.039,58.45 C 54.039,58.45 57.5,59.304 57.5,61.5 L 57.5,63.489 L 44.341,63.489 C 44.341,63.489 39.166,63.967 37.504,70.149 C 37.218,73.045 37.599,74.466 37.794,74.994 C 37.981,75.517 39.497,78.932 44.01,79.785 L 64.963,79.785 L 64.963,60.542 C 64.963,60.543 63.965,53.94 56.081,52.846 M 57.5,74.469 L 46.91,74.469 C 45.487,73.895 45.013,72.947 44.913,72.708 C 44.815,72.475 44.485,71.624 44.869,70.764 C 45.726,69.105 47.146,68.723 47.146,68.723 L 57.5,68.723 L 57.5,74.469 z "
   id="path2239"
   style="fill:#ed1c24" />
	<path
   d="M 35.795,70.264 C 36.024,63.723 30.156,61.461 30.156,61.461 C 35.123,58.863 34.492,52.315 34.492,52.315 C 33.954,42.294 21.71,42.761 21.71,42.761 L 2.791,42.761 L 2.791,80.108 L 24.153,80.108 C 36.698,80.059 35.795,70.264 35.795,70.264 M 23.724,73.167 L 23.724,73.184 L 10.927,73.184 L 10.927,65.126 L 23.661,65.126 L 24.092,65.213 C 24.092,65.213 26.515,65.656 27.393,67.835 C 27.393,67.835 27.901,69.883 26.804,71.404 C 26.804,71.404 25.997,72.811 23.724,73.167 M 26.437,55.852 C 26.437,55.852 25.577,57.432 23.295,57.773 L 10.927,57.773 L 10.927,50.044 L 23.242,50.044 C 23.242,50.044 25.918,49.921 26.804,52.046 C 26.804,52.047 27.336,54.305 26.437,55.852"
   id="path2241"
   style="fill:#ed1c24" />
</g>
</svg>