<?xml version="1.0" encoding="UTF-8" standalone="no"?>
<!-- Created with Inkscape (http://www.inkscape.org/) -->
<svg
   xmlns:dc="http://purl.org/dc/elements/1.1/"
   xmlns:cc="http://creativecommons.org/ns#"
   xmlns:rdf="http://www.w3.org/1999/02/22-rdf-syntax-ns#"
   xmlns:svg="http://www.w3.org/2000/svg"
   xmlns="http://www.w3.org/2000/svg"
   xmlns:sodipodi="http://sodipodi.sourceforge.net/DTD/sodipodi-0.dtd"
   xmlns:inkscape="http://www.inkscape.org/namespaces/inkscape"
   id="svg2403"
   sodipodi:version="0.32"
   inkscape:version="0.46"
   width="531.49625"
   height="531.49625"
   xml:space="preserve"
   sodipodi:docname="Google_Chrome_Logo.svg"
   inkscape:output_extension="org.inkscape.output.svg.inkscape"><metadata
     id="metadata2408"><rdf:RDF><cc:Work
         rdf:about=""><dc:format>image/svg+xml</dc:format><dc:type
           rdf:resource="http://purl.org/dc/dcmitype/StillImage" /></cc:Work></rdf:RDF></metadata><defs
     id="defs2406"><inkscape:perspective
       sodipodi:type="inkscape:persp3d"
       inkscape:vp_x="0 : 526.18109 : 1"
       inkscape:vp_y="0 : 1000 : 0"
       inkscape:vp_z="744.09448 : 526.18109 : 1"
       inkscape:persp3d-origin="372.04724 : 350.78739 : 1"
       id="perspective2410" /><clipPath
       clipPathUnits="userSpaceOnUse"
       id="clipPath2418"><path
         d="M 0,425.197 L 425.197,425.197 L 425.197,0 L 0,0 L 0,425.197 z"
         id="path2420" /></clipPath><linearGradient
       x1="0"
       y1="0"
       x2="1"
       y2="0"
       gradientUnits="userSpaceOnUse"
       gradientTransform="matrix(206.7211,0,0,-206.7211,21.158691,193.98291)"
       spreadMethod="pad"
       id="linearGradient2454"><stop
         style="stop-opacity:1;stop-color:#318e4d"
         offset="0"
         id="stop2456" /><stop
         style="stop-opacity:1;stop-color:#99d420"
         offset="1"
         id="stop2458" /></linearGradient><clipPath
       clipPathUnits="userSpaceOnUse"
       id="clipPath2466"><path
         d="M 90.337,338.631 C 9.128,255.06 35.973,128.743 119.914,80.296 C 19.829,129.86 3.865,255.178 90.337,338.631"
         clip-rule="evenodd"
         id="path2468" /></clipPath><linearGradient
       x1="0"
       y1="0"
       x2="1"
       y2="0"
       gradientUnits="userSpaceOnUse"
       gradientTransform="matrix(206.7211,0,0,-206.7211,21.158691,193.98291)"
       spreadMethod="pad"
       id="linearGradient2504"><stop
         style="stop-opacity:1;stop-color:#92bc8d"
         offset="0"
         id="stop2506" /><stop
         style="stop-opacity:1;stop-color:#cce986"
         offset="1"
         id="stop2508" /></linearGradient><clipPath
       clipPathUnits="userSpaceOnUse"
       id="clipPath2516"><path
         d="M 91.27,347.947 C 27.205,284.724 17.032,205.326 39.799,149.914 C 5.336,219.221 38.547,305.798 91.27,347.947"
         clip-rule="evenodd"
         id="path2518" /></clipPath><linearGradient
       x1="0"
       y1="0"
       x2="1"
       y2="0"
       gradientUnits="userSpaceOnUse"
       gradientTransform="matrix(206.7211,0,0,-206.7211,21.158691,193.98291)"
       spreadMethod="pad"
       id="linearGradient2554"><stop
         style="stop-opacity:1;stop-color:#92bc8d"
         offset="0"
         id="stop2556" /><stop
         style="stop-opacity:1;stop-color:#cce986"
         offset="1"
         id="stop2558" /></linearGradient><clipPath
       clipPathUnits="userSpaceOnUse"
       id="clipPath2566"><path
         d="M 188.779,165.396 L 174.438,156.178 C 131.64,177.434 103.63,220.154 125.27,277.562 C 129.03,275.177 132.448,272.279 133.465,265.782 C 123.824,214.911 146.645,189.694 188.779,165.396"
         clip-rule="evenodd"
         id="path2568" /></clipPath><linearGradient
       x1="0"
       y1="0"
       x2="1"
       y2="0"
       gradientUnits="userSpaceOnUse"
       gradientTransform="matrix(206.7211,0,0,-206.7211,21.158691,193.98291)"
       spreadMethod="pad"
       id="linearGradient2604"><stop
         style="stop-opacity:1;stop-color:#92bc8d"
         offset="0"
         id="stop2606" /><stop
         style="stop-opacity:1;stop-color:#cce986"
         offset="1"
         id="stop2608" /></linearGradient><clipPath
       clipPathUnits="userSpaceOnUse"
       id="clipPath2616"><path
         d="M 119.006,355.519 C 166.024,391.708 218.613,385.931 286.15,365.125 C 291.192,363.699 318.208,362.081 302.098,370.64 C 255.906,395.185 159.092,398.583 119.006,355.519"
         clip-rule="evenodd"
         id="path2618" /></clipPath><linearGradient
       x1="0"
       y1="0"
       x2="1"
       y2="0"
       gradientUnits="userSpaceOnUse"
       gradientTransform="matrix(206.7211,0,0,-206.7211,21.158691,193.98291)"
       spreadMethod="pad"
       id="linearGradient2654"><stop
         style="stop-opacity:1;stop-color:#559e61"
         offset="0"
         id="stop2656" /><stop
         style="stop-opacity:1;stop-color:#aedc44"
         offset="1"
         id="stop2658" /></linearGradient><radialGradient
       fx="0"
       fy="0"
       cx="0"
       cy="0"
       r="1"
       gradientUnits="userSpaceOnUse"
       gradientTransform="matrix(99.407272,0,0,-99.407272,216.98047,241.51221)"
       spreadMethod="pad"
       id="radialGradient2676"><stop
         style="stop-opacity:1;stop-color:#e0ebed"
         offset="0"
         id="stop2678" /><stop
         style="stop-opacity:1;stop-color:#c5edfc"
         offset="0.17"
         id="stop2680" /><stop
         style="stop-opacity:1;stop-color:#99dff9"
         offset="0.31"
         id="stop2682" /><stop
         style="stop-opacity:1;stop-color:#0b95dd"
         offset="0.52"
         id="stop2684" /><stop
         style="stop-opacity:1;stop-color:#2a3c9a"
         offset="0.74"
         id="stop2686" /><stop
         style="stop-opacity:1;stop-color:#0b0c0a"
         offset="1"
         id="stop2688" /></radialGradient><clipPath
       clipPathUnits="userSpaceOnUse"
       id="clipPath2712"><path
         d="M 90.274,332.799 C 88.81,332.577 86.614,330.341 84.381,327.535 C 79.632,321.564 75.527,315.389 74.705,308.114 C 73.888,300.889 78.844,286.969 88.508,295.917 C 96.835,303.628 96.774,300.497 100.307,297.13 C 102.725,294.824 114.149,289.452 108.252,297.207 C 106.962,298.902 105.309,301.11 103.654,303.414 C 99.121,309.724 94.5,316.863 93.404,324.647 C 92.735,329.397 92.402,333.936 90.274,332.799"
         clip-rule="evenodd"
         id="path2714" /></clipPath><linearGradient
       x1="0"
       y1="0"
       x2="1"
       y2="0"
       gradientUnits="userSpaceOnUse"
       gradientTransform="matrix(206.7211,0,0,-206.7211,21.158691,193.98291)"
       spreadMethod="pad"
       id="linearGradient2750"><stop
         style="stop-opacity:1;stop-color:#92bc8d"
         offset="0"
         id="stop2752" /><stop
         style="stop-opacity:1;stop-color:#cce986"
         offset="1"
         id="stop2754" /></linearGradient><radialGradient
       fx="0"
       fy="0"
       cx="0"
       cy="0"
       r="1"
       gradientUnits="userSpaceOnUse"
       gradientTransform="matrix(99.407272,0,0,-99.407272,216.98047,241.51221)"
       spreadMethod="pad"
       id="radialGradient2772"><stop
         style="stop-opacity:1;stop-color:#f0f5f5"
         offset="0"
         id="stop2774" /><stop
         style="stop-opacity:1;stop-color:#e3f6fe"
         offset="0.17"
         id="stop2776" /><stop
         style="stop-opacity:1;stop-color:#cceffc"
         offset="0.31"
         id="stop2778" /><stop
         style="stop-opacity:1;stop-color:#81c3ed"
         offset="0.52"
         id="stop2780" /><stop
         style="stop-opacity:1;stop-color:#867fc7"
         offset="0.74"
         id="stop2782" /><stop
         style="stop-opacity:1;stop-color:#5c5858"
         offset="1"
         id="stop2784" /></radialGradient><clipPath
       clipPathUnits="userSpaceOnUse"
       id="clipPath2814"><path
         d="M 39.495,138.421 C 68.226,102.745 103.106,81.055 139.702,68.968 C 158.196,48.995 181.592,38.638 209.931,32.959 C 133.131,30.057 66.359,80.347 39.495,138.421"
         clip-rule="evenodd"
         id="path2816" /></clipPath><linearGradient
       x1="0"
       y1="0"
       x2="1"
       y2="0"
       gradientUnits="userSpaceOnUse"
       gradientTransform="matrix(206.7211,0,0,-206.7211,21.158691,193.98291)"
       spreadMethod="pad"
       id="linearGradient2852"><stop
         style="stop-opacity:1;stop-color:#67a66d"
         offset="0"
         id="stop2854" /><stop
         style="stop-opacity:1;stop-color:#b8e058"
         offset="1"
         id="stop2856" /></linearGradient><radialGradient
       fx="0"
       fy="0"
       cx="0"
       cy="0"
       r="1"
       gradientUnits="userSpaceOnUse"
       gradientTransform="matrix(99.407272,0,0,-99.407272,216.98047,241.51221)"
       spreadMethod="pad"
       id="radialGradient2874"><stop
         style="stop-opacity:1;stop-color:#e8f0f1"
         offset="0"
         id="stop2876" /><stop
         style="stop-opacity:1;stop-color:#d7f2fd"
         offset="0.17"
         id="stop2878" /><stop
         style="stop-opacity:1;stop-color:#b8e8fb"
         offset="0.31"
         id="stop2880" /><stop
         style="stop-opacity:1;stop-color:#4eaee6"
         offset="0.52"
         id="stop2882" /><stop
         style="stop-opacity:1;stop-color:#5b5bb3"
         offset="0.74"
         id="stop2884" /><stop
         style="stop-opacity:1;stop-color:#30302f"
         offset="1"
         id="stop2886" /></radialGradient></defs><sodipodi:namedview
     inkscape:window-height="667"
     inkscape:window-width="640"
     inkscape:pageshadow="2"
     inkscape:pageopacity="0.0"
     guidetolerance="10.0"
     gridtolerance="10.0"
     objecttolerance="10.0"
     borderopacity="1.0"
     bordercolor="#666666"
     pagecolor="#ffffff"
     id="base"
     showgrid="false"
     inkscape:zoom="0.86924409"
     inkscape:cx="265.74814"
     inkscape:cy="265.74814"
     inkscape:window-x="110"
     inkscape:window-y="67"
     inkscape:current-layer="g2412" /><g
     id="g2412"
     inkscape:groupmode="layer"
     inkscape:label="Google_Chrome [Konvertiert]"
     transform="matrix(1.25,0,0,-1.25,0,531.49625)"><g
       id="g2414"><g
         id="g2416"
         clip-path="url(#clipPath2418)"><path
           d="M 86.02,333.851 L 106.473,355.765 L 119.783,353.655 L 92.837,327.521 L 86.02,333.851 z"
           style="fill:#656263;fill-opacity:1;fill-rule:evenodd;stroke:none"
           id="path2422" /><path
           d="M 133.094,87.77 L 150.787,60.662 L 180.167,45.728 L 187.472,50.436 L 133.094,87.77 z"
           style="fill:#656263;fill-opacity:1;fill-rule:evenodd;stroke:none"
           id="path2424" /><path
           d="M 380.4,238.537 L 394.05,229.616 L 401.25,242.728 L 375.779,301.086 L 380.4,238.537 z"
           style="fill:#656263;fill-opacity:1;fill-rule:evenodd;stroke:none"
           id="path2426" /><path
           d="M 380.4,238.537 L 394.05,229.616 L 401.25,242.728 L 375.779,301.086 L 380.4,238.537 z"
           style="fill:none;stroke:#231f20;stroke-opacity:1;stroke-width:0.567;stroke-linecap:butt;stroke-linejoin:miter;stroke-miterlimit:22.926;stroke-dasharray:none"
           id="path2428" /><path
           d="M 214.378,379.397 C 275.2,379.397 314.813,335.503 357.473,298.381 C 402.227,259.436 380.723,162.414 352.441,119.998 C 322.517,75.118 271.842,45.09 214.378,45.09 C 122.437,45.09 78.444,168.791 71.94,257.771 C 73.241,341.549 122.437,379.397 214.378,379.397"
           style="fill:#4f4c4c;fill-opacity:1;fill-rule:evenodd;stroke:none"
           id="path2430" /><path
           d="M 139.042,285.59 C 135.529,302.899 108.779,334.516 115.702,367.769 C 219.806,430.672 355.938,377.533 382.813,283.371 C 384.018,279.147 388.543,267.001 385.143,263.643 C 383.77,262.287 381.349,261.817 377.878,262.235 C 360.248,267.095 341.638,270.651 322.546,273.562 C 311.376,275.266 296.555,274.99 286.209,279.608 C 283.322,280.896 280.903,282.578 278.737,284.504 C 273.167,289.458 269.811,295.23 263.651,299.975 C 232.156,324.24 182.946,329.008 147.572,281.691 C 143.139,275.765 140.121,280.259 139.042,285.59"
           style="fill:#ed1c24;fill-opacity:1;fill-rule:evenodd;stroke:none"
           id="path2432" /><path
           d="M 153.962,366.235 C 155.628,361.089 143.974,351.276 135.914,348.162 C 129.521,345.691 125.669,350.036 128.791,356.253 C 133.27,365.175 152.571,370.53 153.962,366.235"
           style="fill:#fabaa6;fill-opacity:1;fill-rule:evenodd;stroke:none"
           id="path2434" /><path
           d="M 123.298,329.208 C 121.731,333.602 119.967,338.001 117.974,342.405 C 116.999,344.56 115.505,346.628 117.719,348.689 C 121.141,351.873 129.568,342.352 126.232,329.055 C 124.857,323.569 124.867,324.807 123.298,329.208"
           style="fill:#fabaa6;fill-opacity:1;fill-rule:evenodd;stroke:none"
           id="path2436" /><path
           d="M 136.383,295.651 C 187.418,355.75 259.774,348.606 305.732,284.714 L 289.15,284.008 C 243.299,341.032 179.339,338.427 140.793,281.362 C 140.352,286.125 139.176,290.888 136.383,295.651"
           style="fill:#f9a690;fill-opacity:1;fill-rule:evenodd;stroke:none"
           id="path2438" /><path
           d="M 385.021,265.175 C 380.471,264.083 375.921,266.036 371.371,268.426 C 345.632,277.606 319.667,281.704 292.832,284.165 L 289.15,284.008 C 243.299,341.032 179.339,338.427 140.793,281.362 C 140.69,282.475 140.547,283.589 140.352,284.702 L 139.533,283.66 C 140.893,279.303 143.69,276.501 147.572,281.691 C 182.946,329.008 232.156,324.24 263.651,299.975 C 269.811,295.23 273.167,289.458 278.737,284.504 C 280.903,282.578 283.322,280.896 286.209,279.608 C 296.555,274.99 311.376,275.266 322.546,273.562 C 341.638,270.651 360.248,267.095 377.878,262.235 C 380.721,261.893 382.859,262.146 384.294,262.994 L 385.021,265.175 z"
           style="fill:#c3212d;fill-opacity:1;fill-rule:evenodd;stroke:none"
           id="path2440" /><g
           id="g2442"><g
             id="g2444"><g
               id="g2450"><g
                 id="g2452"><path
                   d="M 229.989,32.321 C 186.939,20.346 112.375,43.209 63.808,99.579 C 47.488,118.519 36.168,142.896 28.978,166.68 C 16.658,207.428 21.461,242.152 34.743,273.891 C 60.912,329.934 90.335,360.524 114.621,358.658 C 114.528,356.17 114.617,353.772 114.829,351.436 C 88.913,354.494 102.102,321.801 114.656,300.12 C 119.665,291.47 126.239,284.466 131.301,276.11 C 134.103,271.486 136.438,266.161 138.516,260.452 C 134.012,221.787 151.534,189.804 185.254,171.423 C 193.485,166.935 194.617,168.628 186.756,162.465 C 185.999,161.871 185.248,161.282 184.506,160.698 C 164.24,144.769 149.55,132.721 140.001,124.158 C 130.921,116.016 118.633,104.281 129.479,91.292 C 144.6,72.45 162.98,46.786 185.438,49.481 C 197.931,41.572 216.257,34.587 229.989,32.321"
                   style="fill:url(#linearGradient2454);fill-rule:evenodd;stroke:none"
                   id="path2460" /></g></g></g></g><g
           id="g2462"><g
             id="g2464"
             clip-path="url(#clipPath2466)"><path
               d="M -37.87,410.631 L 191.914,410.631 L 191.914,8.296 L -37.87,8.296 L -37.87,410.631 z"
               style="fill:#ffffff;fill-opacity:1;fill-rule:evenodd;stroke:none"
               id="path2470" /><path
               d="M 86.02,333.851 L 106.473,355.765 L 119.783,353.655 L 92.837,327.521 L 86.02,333.851 z"
               style="fill:#b2b1b1;fill-opacity:1;fill-rule:evenodd;stroke:none"
               id="path2472" /><path
               d="M 133.094,87.77 L 150.787,60.662 L 180.167,45.728 L 187.472,50.436 L 133.094,87.77 z"
               style="fill:#b2b1b1;fill-opacity:1;fill-rule:evenodd;stroke:none"
               id="path2474" /><path
               d="M 380.4,238.537 L 394.05,229.616 L 401.25,242.728 L 375.779,301.086 L 380.4,238.537 z"
               style="fill:#b2b1b1;fill-opacity:1;fill-rule:evenodd;stroke:none"
               id="path2476" /><path
               d="M 380.4,238.537 L 394.05,229.616 L 401.25,242.728 L 375.779,301.086 L 380.4,238.537 z"
               style="fill:none;stroke:#918f90;stroke-opacity:1;stroke-width:0.567;stroke-linecap:butt;stroke-linejoin:miter;stroke-miterlimit:22.926;stroke-dasharray:none"
               id="path2478" /><path
               d="M 214.378,379.397 C 275.2,379.397 314.813,335.503 357.473,298.381 C 402.227,259.436 380.723,162.414 352.441,119.998 C 322.517,75.118 271.842,45.09 214.378,45.09 C 122.437,45.09 78.444,168.791 71.94,257.771 C 73.241,341.549 122.437,379.397 214.378,379.397"
               style="fill:#a7a6a6;fill-opacity:1;fill-rule:evenodd;stroke:none"
               id="path2480" /><path
               d="M 139.042,285.59 C 135.529,302.899 108.779,334.516 115.702,367.769 C 219.806,430.672 355.938,377.533 382.813,283.371 C 384.018,279.147 388.543,267.001 385.143,263.643 C 383.77,262.287 381.349,261.817 377.878,262.235 C 360.248,267.095 341.638,270.651 322.546,273.562 C 311.376,275.266 296.555,274.99 286.209,279.608 C 283.322,280.896 280.903,282.578 278.737,284.504 C 273.167,289.458 269.811,295.23 263.651,299.975 C 232.156,324.24 182.946,329.008 147.572,281.691 C 143.139,275.765 140.121,280.259 139.042,285.59"
               style="fill:#f6836c;fill-opacity:1;fill-rule:evenodd;stroke:none"
               id="path2482" /><path
               d="M 153.962,366.235 C 155.628,361.089 143.974,351.276 135.914,348.162 C 129.521,345.691 125.669,350.036 128.791,356.253 C 133.27,365.175 152.571,370.53 153.962,366.235"
               style="fill:#fddbce;fill-opacity:1;fill-rule:evenodd;stroke:none"
               id="path2484" /><path
               d="M 123.298,329.208 C 121.731,333.602 119.967,338.001 117.974,342.405 C 116.999,344.56 115.505,346.628 117.719,348.689 C 121.141,351.873 129.568,342.352 126.232,329.055 C 124.857,323.569 124.867,324.807 123.298,329.208"
               style="fill:#fddbce;fill-opacity:1;fill-rule:evenodd;stroke:none"
               id="path2486" /><path
               d="M 136.383,295.651 C 187.418,355.75 259.774,348.606 305.732,284.714 L 289.15,284.008 C 243.299,341.032 179.339,338.427 140.793,281.362 C 140.352,286.125 139.176,290.888 136.383,295.651"
               style="fill:#fcd0c2;fill-opacity:1;fill-rule:evenodd;stroke:none"
               id="path2488" /><path
               d="M 385.021,265.175 C 380.471,264.083 375.921,266.036 371.371,268.426 C 345.632,277.606 319.667,281.704 292.832,284.165 L 289.15,284.008 C 243.299,341.032 179.339,338.427 140.793,281.362 C 140.69,282.475 140.547,283.589 140.352,284.702 L 139.533,283.66 C 140.893,279.303 143.69,276.501 147.572,281.691 C 182.946,329.008 232.156,324.24 263.651,299.975 C 269.811,295.23 273.167,289.458 278.737,284.504 C 280.903,282.578 283.322,280.896 286.209,279.608 C 296.555,274.99 311.376,275.266 322.546,273.562 C 341.638,270.651 360.248,267.095 377.878,262.235 C 380.721,261.893 382.859,262.146 384.294,262.994 L 385.021,265.175 z"
               style="fill:#dc8172;fill-opacity:1;fill-rule:evenodd;stroke:none"
               id="path2490" /><g
               id="g2492"><g
                 id="g2494"><g
                   id="g2500"><g
                     id="g2502"><path
                       d="M 229.989,32.321 C 186.939,20.346 112.375,43.209 63.808,99.579 C 47.488,118.519 36.168,142.896 28.978,166.68 C 16.658,207.428 21.461,242.152 34.743,273.891 C 60.912,329.934 90.335,360.524 114.621,358.658 C 114.528,356.17 114.617,353.772 114.829,351.436 C 88.913,354.494 102.102,321.801 114.656,300.12 C 119.665,291.47 126.239,284.466 131.301,276.11 C 134.103,271.486 136.438,266.161 138.516,260.452 C 134.012,221.787 151.534,189.804 185.254,171.423 C 193.485,166.935 194.617,168.628 186.756,162.465 C 185.999,161.871 185.248,161.282 184.506,160.698 C 164.24,144.769 149.55,132.721 140.001,124.158 C 130.921,116.016 118.633,104.281 129.479,91.292 C 144.6,72.45 162.98,46.786 185.438,49.481 C 197.931,41.572 216.257,34.587 229.989,32.321"
                       style="fill:url(#linearGradient2504);fill-rule:evenodd;stroke:none"
                       id="path2510" /></g></g></g></g></g></g><g
           id="g2512"><g
             id="g2514"
             clip-path="url(#clipPath2516)"><path
               d="M -46.291,419.947 L 163.27,419.947 L 163.27,77.914 L -46.291,77.914 L -46.291,419.947 z"
               style="fill:#ffffff;fill-opacity:1;fill-rule:evenodd;stroke:none"
               id="path2520" /><path
               d="M 86.02,333.851 L 106.473,355.765 L 119.783,353.655 L 92.837,327.521 L 86.02,333.851 z"
               style="fill:#b2b1b1;fill-opacity:1;fill-rule:evenodd;stroke:none"
               id="path2522" /><path
               d="M 133.094,87.77 L 150.787,60.662 L 180.167,45.728 L 187.472,50.436 L 133.094,87.77 z"
               style="fill:#b2b1b1;fill-opacity:1;fill-rule:evenodd;stroke:none"
               id="path2524" /><path
               d="M 380.4,238.537 L 394.05,229.616 L 401.25,242.728 L 375.779,301.086 L 380.4,238.537 z"
               style="fill:#b2b1b1;fill-opacity:1;fill-rule:evenodd;stroke:none"
               id="path2526" /><path
               d="M 380.4,238.537 L 394.05,229.616 L 401.25,242.728 L 375.779,301.086 L 380.4,238.537 z"
               style="fill:none;stroke:#918f90;stroke-opacity:1;stroke-width:0.567;stroke-linecap:butt;stroke-linejoin:miter;stroke-miterlimit:22.926;stroke-dasharray:none"
               id="path2528" /><path
               d="M 214.378,379.397 C 275.2,379.397 314.813,335.503 357.473,298.381 C 402.227,259.436 380.723,162.414 352.441,119.998 C 322.517,75.118 271.842,45.09 214.378,45.09 C 122.437,45.09 78.444,168.791 71.94,257.771 C 73.241,341.549 122.437,379.397 214.378,379.397"
               style="fill:#a7a6a6;fill-opacity:1;fill-rule:evenodd;stroke:none"
               id="path2530" /><path
               d="M 139.042,285.59 C 135.529,302.899 108.779,334.516 115.702,367.769 C 219.806,430.672 355.938,377.533 382.813,283.371 C 384.018,279.147 388.543,267.001 385.143,263.643 C 383.77,262.287 381.349,261.817 377.878,262.235 C 360.248,267.095 341.638,270.651 322.546,273.562 C 311.376,275.266 296.555,274.99 286.209,279.608 C 283.322,280.896 280.903,282.578 278.737,284.504 C 273.167,289.458 269.811,295.23 263.651,299.975 C 232.156,324.24 182.946,329.008 147.572,281.691 C 143.139,275.765 140.121,280.259 139.042,285.59"
               style="fill:#f6836c;fill-opacity:1;fill-rule:evenodd;stroke:none"
               id="path2532" /><path
               d="M 153.962,366.235 C 155.628,361.089 143.974,351.276 135.914,348.162 C 129.521,345.691 125.669,350.036 128.791,356.253 C 133.27,365.175 152.571,370.53 153.962,366.235"
               style="fill:#fddbce;fill-opacity:1;fill-rule:evenodd;stroke:none"
               id="path2534" /><path
               d="M 123.298,329.208 C 121.731,333.602 119.967,338.001 117.974,342.405 C 116.999,344.56 115.505,346.628 117.719,348.689 C 121.141,351.873 129.568,342.352 126.232,329.055 C 124.857,323.569 124.867,324.807 123.298,329.208"
               style="fill:#fddbce;fill-opacity:1;fill-rule:evenodd;stroke:none"
               id="path2536" /><path
               d="M 136.383,295.651 C 187.418,355.75 259.774,348.606 305.732,284.714 L 289.15,284.008 C 243.299,341.032 179.339,338.427 140.793,281.362 C 140.352,286.125 139.176,290.888 136.383,295.651"
               style="fill:#fcd0c2;fill-opacity:1;fill-rule:evenodd;stroke:none"
               id="path2538" /><path
               d="M 385.021,265.175 C 380.471,264.083 375.921,266.036 371.371,268.426 C 345.632,277.606 319.667,281.704 292.832,284.165 L 289.15,284.008 C 243.299,341.032 179.339,338.427 140.793,281.362 C 140.69,282.475 140.547,283.589 140.352,284.702 L 139.533,283.66 C 140.893,279.303 143.69,276.501 147.572,281.691 C 182.946,329.008 232.156,324.24 263.651,299.975 C 269.811,295.23 273.167,289.458 278.737,284.504 C 280.903,282.578 283.322,280.896 286.209,279.608 C 296.555,274.99 311.376,275.266 322.546,273.562 C 341.638,270.651 360.248,267.095 377.878,262.235 C 380.721,261.893 382.859,262.146 384.294,262.994 L 385.021,265.175 z"
               style="fill:#dc8172;fill-opacity:1;fill-rule:evenodd;stroke:none"
               id="path2540" /><g
               id="g2542"><g
                 id="g2544"><g
                   id="g2550"><g
                     id="g2552"><path
                       d="M 229.989,32.321 C 186.939,20.346 112.375,43.209 63.808,99.579 C 47.488,118.519 36.168,142.896 28.978,166.68 C 16.658,207.428 21.461,242.152 34.743,273.891 C 60.912,329.934 90.335,360.524 114.621,358.658 C 114.528,356.17 114.617,353.772 114.829,351.436 C 88.913,354.494 102.102,321.801 114.656,300.12 C 119.665,291.47 126.239,284.466 131.301,276.11 C 134.103,271.486 136.438,266.161 138.516,260.452 C 134.012,221.787 151.534,189.804 185.254,171.423 C 193.485,166.935 194.617,168.628 186.756,162.465 C 185.999,161.871 185.248,161.282 184.506,160.698 C 164.24,144.769 149.55,132.721 140.001,124.158 C 130.921,116.016 118.633,104.281 129.479,91.292 C 144.6,72.45 162.98,46.786 185.438,49.481 C 197.931,41.572 216.257,34.587 229.989,32.321"
                       style="fill:url(#linearGradient2554);fill-rule:evenodd;stroke:none"
                       id="path2560" /></g></g></g></g></g></g><g
           id="g2562"><g
             id="g2564"
             clip-path="url(#clipPath2566)"><path
               d="M 45.804,349.562 L 260.779,349.562 L 260.779,84.178 L 45.804,84.178 L 45.804,349.562 z"
               style="fill:#ffffff;fill-opacity:1;fill-rule:evenodd;stroke:none"
               id="path2570" /><path
               d="M 86.02,333.851 L 106.473,355.765 L 119.783,353.655 L 92.837,327.521 L 86.02,333.851 z"
               style="fill:#b2b1b1;fill-opacity:1;fill-rule:evenodd;stroke:none"
               id="path2572" /><path
               d="M 133.094,87.77 L 150.787,60.662 L 180.167,45.728 L 187.472,50.436 L 133.094,87.77 z"
               style="fill:#b2b1b1;fill-opacity:1;fill-rule:evenodd;stroke:none"
               id="path2574" /><path
               d="M 380.4,238.537 L 394.05,229.616 L 401.25,242.728 L 375.779,301.086 L 380.4,238.537 z"
               style="fill:#b2b1b1;fill-opacity:1;fill-rule:evenodd;stroke:none"
               id="path2576" /><path
               d="M 380.4,238.537 L 394.05,229.616 L 401.25,242.728 L 375.779,301.086 L 380.4,238.537 z"
               style="fill:none;stroke:#918f90;stroke-opacity:1;stroke-width:0.567;stroke-linecap:butt;stroke-linejoin:miter;stroke-miterlimit:22.926;stroke-dasharray:none"
               id="path2578" /><path
               d="M 214.378,379.397 C 275.2,379.397 314.813,335.503 357.473,298.381 C 402.227,259.436 380.723,162.414 352.441,119.998 C 322.517,75.118 271.842,45.09 214.378,45.09 C 122.437,45.09 78.444,168.791 71.94,257.771 C 73.241,341.549 122.437,379.397 214.378,379.397"
               style="fill:#a7a6a6;fill-opacity:1;fill-rule:evenodd;stroke:none"
               id="path2580" /><path
               d="M 139.042,285.59 C 135.529,302.899 108.779,334.516 115.702,367.769 C 219.806,430.672 355.938,377.533 382.813,283.371 C 384.018,279.147 388.543,267.001 385.143,263.643 C 383.77,262.287 381.349,261.817 377.878,262.235 C 360.248,267.095 341.638,270.651 322.546,273.562 C 311.376,275.266 296.555,274.99 286.209,279.608 C 283.322,280.896 280.903,282.578 278.737,284.504 C 273.167,289.458 269.811,295.23 263.651,299.975 C 232.156,324.24 182.946,329.008 147.572,281.691 C 143.139,275.765 140.121,280.259 139.042,285.59"
               style="fill:#f6836c;fill-opacity:1;fill-rule:evenodd;stroke:none"
               id="path2582" /><path
               d="M 153.962,366.235 C 155.628,361.089 143.974,351.276 135.914,348.162 C 129.521,345.691 125.669,350.036 128.791,356.253 C 133.27,365.175 152.571,370.53 153.962,366.235"
               style="fill:#fddbce;fill-opacity:1;fill-rule:evenodd;stroke:none"
               id="path2584" /><path
               d="M 123.298,329.208 C 121.731,333.602 119.967,338.001 117.974,342.405 C 116.999,344.56 115.505,346.628 117.719,348.689 C 121.141,351.873 129.568,342.352 126.232,329.055 C 124.857,323.569 124.867,324.807 123.298,329.208"
               style="fill:#fddbce;fill-opacity:1;fill-rule:evenodd;stroke:none"
               id="path2586" /><path
               d="M 136.383,295.651 C 187.418,355.75 259.774,348.606 305.732,284.714 L 289.15,284.008 C 243.299,341.032 179.339,338.427 140.793,281.362 C 140.352,286.125 139.176,290.888 136.383,295.651"
               style="fill:#fcd0c2;fill-opacity:1;fill-rule:evenodd;stroke:none"
               id="path2588" /><path
               d="M 385.021,265.175 C 380.471,264.083 375.921,266.036 371.371,268.426 C 345.632,277.606 319.667,281.704 292.832,284.165 L 289.15,284.008 C 243.299,341.032 179.339,338.427 140.793,281.362 C 140.69,282.475 140.547,283.589 140.352,284.702 L 139.533,283.66 C 140.893,279.303 143.69,276.501 147.572,281.691 C 182.946,329.008 232.156,324.24 263.651,299.975 C 269.811,295.23 273.167,289.458 278.737,284.504 C 280.903,282.578 283.322,280.896 286.209,279.608 C 296.555,274.99 311.376,275.266 322.546,273.562 C 341.638,270.651 360.248,267.095 377.878,262.235 C 380.721,261.893 382.859,262.146 384.294,262.994 L 385.021,265.175 z"
               style="fill:#dc8172;fill-opacity:1;fill-rule:evenodd;stroke:none"
               id="path2590" /><g
               id="g2592"><g
                 id="g2594"><g
                   id="g2600"><g
                     id="g2602"><path
                       d="M 229.989,32.321 C 186.939,20.346 112.375,43.209 63.808,99.579 C 47.488,118.519 36.168,142.896 28.978,166.68 C 16.658,207.428 21.461,242.152 34.743,273.891 C 60.912,329.934 90.335,360.524 114.621,358.658 C 114.528,356.17 114.617,353.772 114.829,351.436 C 88.913,354.494 102.102,321.801 114.656,300.12 C 119.665,291.47 126.239,284.466 131.301,276.11 C 134.103,271.486 136.438,266.161 138.516,260.452 C 134.012,221.787 151.534,189.804 185.254,171.423 C 193.485,166.935 194.617,168.628 186.756,162.465 C 185.999,161.871 185.248,161.282 184.506,160.698 C 164.24,144.769 149.55,132.721 140.001,124.158 C 130.921,116.016 118.633,104.281 129.479,91.292 C 144.6,72.45 162.98,46.786 185.438,49.481 C 197.931,41.572 216.257,34.587 229.989,32.321"
                       style="fill:url(#linearGradient2604);fill-rule:evenodd;stroke:none"
                       id="path2610" /></g></g></g></g></g></g><g
           id="g2612"><g
             id="g2614"
             clip-path="url(#clipPath2616)"><path
               d="M 47.006,460.609 L 379.16,460.609 L 379.16,283.519 L 47.006,283.519 L 47.006,460.609 z"
               style="fill:#ffffff;fill-opacity:1;fill-rule:evenodd;stroke:none"
               id="path2620" /><path
               d="M 86.02,333.851 L 106.473,355.765 L 119.783,353.655 L 92.837,327.521 L 86.02,333.851 z"
               style="fill:#827f80;fill-opacity:1;fill-rule:evenodd;stroke:none"
               id="path2622" /><path
               d="M 133.094,87.77 L 150.787,60.662 L 180.167,45.728 L 187.472,50.436 L 133.094,87.77 z"
               style="fill:#827f80;fill-opacity:1;fill-rule:evenodd;stroke:none"
               id="path2624" /><path
               d="M 380.4,238.537 L 394.05,229.616 L 401.25,242.728 L 375.779,301.086 L 380.4,238.537 z"
               style="fill:#827f80;fill-opacity:1;fill-rule:evenodd;stroke:none"
               id="path2626" /><path
               d="M 380.4,238.537 L 394.05,229.616 L 401.25,242.728 L 375.779,301.086 L 380.4,238.537 z"
               style="fill:none;stroke:#4d494a;stroke-opacity:1;stroke-width:0.567;stroke-linecap:butt;stroke-linejoin:miter;stroke-miterlimit:22.926;stroke-dasharray:none"
               id="path2628" /><path
               d="M 214.378,379.397 C 275.2,379.397 314.813,335.503 357.473,298.381 C 402.227,259.436 380.723,162.414 352.441,119.998 C 322.517,75.118 271.842,45.09 214.378,45.09 C 122.437,45.09 78.444,168.791 71.94,257.771 C 73.241,341.549 122.437,379.397 214.378,379.397"
               style="fill:#706d6e;fill-opacity:1;fill-rule:evenodd;stroke:none"
               id="path2630" /><path
               d="M 139.042,285.59 C 135.529,302.899 108.779,334.516 115.702,367.769 C 219.806,430.672 355.938,377.533 382.813,283.371 C 384.018,279.147 388.543,267.001 385.143,263.643 C 383.77,262.287 381.349,261.817 377.878,262.235 C 360.248,267.095 341.638,270.651 322.546,273.562 C 311.376,275.266 296.555,274.99 286.209,279.608 C 283.322,280.896 280.903,282.578 278.737,284.504 C 273.167,289.458 269.811,295.23 263.651,299.975 C 232.156,324.24 182.946,329.008 147.572,281.691 C 143.139,275.765 140.121,280.259 139.042,285.59"
               style="fill:#f14136;fill-opacity:1;fill-rule:evenodd;stroke:none"
               id="path2632" /><path
               d="M 153.962,366.235 C 155.628,361.089 143.974,351.276 135.914,348.162 C 129.521,345.691 125.669,350.036 128.791,356.253 C 133.27,365.175 152.571,370.53 153.962,366.235"
               style="fill:#fbc6b5;fill-opacity:1;fill-rule:evenodd;stroke:none"
               id="path2634" /><path
               d="M 123.298,329.208 C 121.731,333.602 119.967,338.001 117.974,342.405 C 116.999,344.56 115.505,346.628 117.719,348.689 C 121.141,351.873 129.568,342.352 126.232,329.055 C 124.857,323.569 124.867,324.807 123.298,329.208"
               style="fill:#fbc6b5;fill-opacity:1;fill-rule:evenodd;stroke:none"
               id="path2636" /><path
               d="M 136.383,295.651 C 187.418,355.75 259.774,348.606 305.732,284.714 L 289.15,284.008 C 243.299,341.032 179.339,338.427 140.793,281.362 C 140.352,286.125 139.176,290.888 136.383,295.651"
               style="fill:#fab7a3;fill-opacity:1;fill-rule:evenodd;stroke:none"
               id="path2638" /><path
               d="M 385.021,265.175 C 380.471,264.083 375.921,266.036 371.371,268.426 C 345.632,277.606 319.667,281.704 292.832,284.165 L 289.15,284.008 C 243.299,341.032 179.339,338.427 140.793,281.362 C 140.69,282.475 140.547,283.589 140.352,284.702 L 139.533,283.66 C 140.893,279.303 143.69,276.501 147.572,281.691 C 182.946,329.008 232.156,324.24 263.651,299.975 C 269.811,295.23 273.167,289.458 278.737,284.504 C 280.903,282.578 283.322,280.896 286.209,279.608 C 296.555,274.99 311.376,275.266 322.546,273.562 C 341.638,270.651 360.248,267.095 377.878,262.235 C 380.721,261.893 382.859,262.146 384.294,262.994 L 385.021,265.175 z"
               style="fill:#cb423f;fill-opacity:1;fill-rule:evenodd;stroke:none"
               id="path2640" /><g
               id="g2642"><g
                 id="g2644"><g
                   id="g2650"><g
                     id="g2652"><path
                       d="M 229.989,32.321 C 186.939,20.346 112.375,43.209 63.808,99.579 C 47.488,118.519 36.168,142.896 28.978,166.68 C 16.658,207.428 21.461,242.152 34.743,273.891 C 60.912,329.934 90.335,360.524 114.621,358.658 C 114.528,356.17 114.617,353.772 114.829,351.436 C 88.913,354.494 102.102,321.801 114.656,300.12 C 119.665,291.47 126.239,284.466 131.301,276.11 C 134.103,271.486 136.438,266.161 138.516,260.452 C 134.012,221.787 151.534,189.804 185.254,171.423 C 193.485,166.935 194.617,168.628 186.756,162.465 C 185.999,161.871 185.248,161.282 184.506,160.698 C 164.24,144.769 149.55,132.721 140.001,124.158 C 130.921,116.016 118.633,104.281 129.479,91.292 C 144.6,72.45 162.98,46.786 185.438,49.481 C 197.931,41.572 216.257,34.587 229.989,32.321"
                       style="fill:url(#linearGradient2654);fill-rule:evenodd;stroke:none"
                       id="path2660" /></g></g></g></g></g></g><path
           d="M 138.363,96.305 L 130.128,108.264 C 128.724,112.61 130.554,115.877 133.854,118.654 L 194.236,167.667 C 194.532,169.366 194.141,171.064 191.295,172.764 C 164.756,182.86 156.584,195.056 148.557,207.268 C 139.849,227.281 138.248,244.435 140.519,263.926 L 119.824,297.151 C 113.307,307.614 108.298,315.423 109.511,328.509 C 110.051,334.333 112.238,338.837 116.405,341.756 L 141.695,279.413 C 148.035,278.728 150.06,274.806 150.125,269.415 C 126.779,217.492 173.943,170.043 215.213,171.783 L 155.027,124.928 C 146.497,118.557 141.399,113.263 146.989,108.46 C 142.214,105.063 137.835,101.403 138.363,96.305"
           style="fill:#d3d3d3;fill-opacity:1;fill-rule:evenodd;stroke:none"
           id="path2662" /><g
           id="g2664"><g
             id="g2666"><g
               id="g2672"><g
                 id="g2674"><path
                   d="M 216.98,173.87 C 257.102,173.87 289.825,204.256 289.825,241.512 C 289.825,278.768 257.102,309.154 216.98,309.154 C 176.858,309.154 144.135,278.768 144.135,241.512 C 144.135,204.256 176.858,173.87 216.98,173.87"
                   style="fill:url(#radialGradient2676);fill-rule:evenodd;stroke:none"
                   id="path2690" /></g></g></g></g><path
           d="M 190.828,288.83 C 167.822,283.216 160.765,259.985 162.726,239.195 C 162.94,236.923 163.262,234.679 163.683,232.491 C 166.414,227.71 169.146,227.711 171.877,232.491 C 171.877,254.84 168.157,274.934 190.828,288.83"
           style="fill:#99dff9;fill-opacity:1;fill-rule:evenodd;stroke:none"
           id="path2692" /><path
           d="M 283.932,260.054 C 261.091,316.917 195.001,318.682 156.616,278.079 C 188.235,326.127 273.491,314.378 283.932,260.054"
           style="fill:#e6f7fe;fill-opacity:1;fill-rule:evenodd;stroke:none"
           id="path2694" /><path
           d="M 207.763,291.96 C 199.914,291.86 194.775,289.321 189.321,285.617 C 179.426,278.895 183.596,273.855 193.504,282.264 C 197.889,285.986 202.658,289.197 207.763,291.96"
           style="fill:#99dff9;fill-opacity:1;fill-rule:evenodd;stroke:none"
           id="path2696" /><path
           d="M 205.681,189.981 C 169.657,194.905 150.344,234.109 151.903,252.978 C 149.755,226.779 158.938,191.015 205.681,189.981"
           style="fill:#00adef;fill-opacity:1;fill-rule:evenodd;stroke:none"
           id="path2698" /><path
           d="M 253.313,210.98 C 272.693,230.1 272.351,252.977 263.044,277.562 C 289.178,251.595 286.8,223.283 253.313,210.98"
           style="fill:#00adef;fill-opacity:1;fill-rule:evenodd;stroke:none"
           id="path2700" /><path
           d="M 299.42,251.49 C 297.048,264.061 282.699,260.978 282.699,270.702 C 312.16,270.99 336.628,261.842 361.681,253.803 C 371.595,249.645 368.102,260.171 366.84,264.832 L 379.47,261.985 C 380.923,254.479 382.678,246.948 379.292,239.927 C 353.24,252.353 326.482,262.789 297.107,265.721 L 299.42,251.49 z"
           style="fill:#d3d3d3;fill-opacity:1;fill-rule:evenodd;stroke:none"
           id="path2702" /><path
           d="M 229.604,32.15 C 195.596,39.804 162.572,56.323 140.554,89.457 C 136.246,95.168 137.557,100.88 144.486,106.592 L 217.244,163.056 C 245.277,163.782 266.181,171.975 278.483,189.181 C 295.794,209.246 304.363,233.13 296.959,265.996 C 332.231,260.168 361.657,252.354 388.833,234.155 C 396.146,231.772 396.741,238.84 394.231,247.595 C 389.35,264.235 384.128,280.875 377.69,297.516 C 386.85,284.37 396.593,267.19 401.736,241.833 C 407.306,214.366 406.78,192.364 398.583,165.503 C 375.863,91.052 312.808,33.887 229.604,32.15"
           style="fill:#fbd60e;fill-opacity:1;fill-rule:evenodd;stroke:none"
           id="path2704" /><path
           d="M 199.32,146.994 L 219.203,162.199 C 272.109,157.289 313.278,211.886 298.737,264.54 L 315.501,260.446 C 321.395,190.165 276.757,136.458 199.32,146.994"
           style="fill:#fffcb3;fill-opacity:1;fill-rule:evenodd;stroke:none"
           id="path2706" /><g
           id="g2708"><g
             id="g2710"
             clip-path="url(#clipPath2712)"><path
               d="M 2.619,404.974 L 181.916,404.974 L 181.916,221.019 L 2.619,221.019 L 2.619,404.974 z"
               style="fill:#ffffff;fill-opacity:1;fill-rule:evenodd;stroke:none"
               id="path2716" /><path
               d="M 86.02,333.851 L 106.473,355.765 L 119.783,353.655 L 92.837,327.521 L 86.02,333.851 z"
               style="fill:#b2b1b1;fill-opacity:1;fill-rule:evenodd;stroke:none"
               id="path2718" /><path
               d="M 133.094,87.77 L 150.787,60.662 L 180.167,45.728 L 187.472,50.436 L 133.094,87.77 z"
               style="fill:#b2b1b1;fill-opacity:1;fill-rule:evenodd;stroke:none"
               id="path2720" /><path
               d="M 380.4,238.537 L 394.05,229.616 L 401.25,242.728 L 375.779,301.086 L 380.4,238.537 z"
               style="fill:#b2b1b1;fill-opacity:1;fill-rule:evenodd;stroke:none"
               id="path2722" /><path
               d="M 380.4,238.537 L 394.05,229.616 L 401.25,242.728 L 375.779,301.086 L 380.4,238.537 z"
               style="fill:none;stroke:#918f90;stroke-opacity:1;stroke-width:0.567;stroke-linecap:butt;stroke-linejoin:miter;stroke-miterlimit:22.926;stroke-dasharray:none"
               id="path2724" /><path
               d="M 214.378,379.397 C 275.2,379.397 314.813,335.503 357.473,298.381 C 402.227,259.436 380.723,162.414 352.441,119.998 C 322.517,75.118 271.842,45.09 214.378,45.09 C 122.437,45.09 78.444,168.791 71.94,257.771 C 73.241,341.549 122.437,379.397 214.378,379.397"
               style="fill:#a7a6a6;fill-opacity:1;fill-rule:evenodd;stroke:none"
               id="path2726" /><path
               d="M 139.042,285.59 C 135.529,302.899 108.779,334.516 115.702,367.769 C 219.806,430.672 355.938,377.533 382.813,283.371 C 384.018,279.147 388.543,267.001 385.143,263.643 C 383.77,262.287 381.349,261.817 377.878,262.235 C 360.248,267.095 341.638,270.651 322.546,273.562 C 311.376,275.266 296.555,274.99 286.209,279.608 C 283.322,280.896 280.903,282.578 278.737,284.504 C 273.167,289.458 269.811,295.23 263.651,299.975 C 232.156,324.24 182.946,329.008 147.572,281.691 C 143.139,275.765 140.121,280.259 139.042,285.59"
               style="fill:#f6836c;fill-opacity:1;fill-rule:evenodd;stroke:none"
               id="path2728" /><path
               d="M 153.962,366.235 C 155.628,361.089 143.974,351.276 135.914,348.162 C 129.521,345.691 125.669,350.036 128.791,356.253 C 133.27,365.175 152.571,370.53 153.962,366.235"
               style="fill:#fddbce;fill-opacity:1;fill-rule:evenodd;stroke:none"
               id="path2730" /><path
               d="M 123.298,329.208 C 121.731,333.602 119.967,338.001 117.974,342.405 C 116.999,344.56 115.505,346.628 117.719,348.689 C 121.141,351.873 129.568,342.352 126.232,329.055 C 124.857,323.569 124.867,324.807 123.298,329.208"
               style="fill:#fddbce;fill-opacity:1;fill-rule:evenodd;stroke:none"
               id="path2732" /><path
               d="M 136.383,295.651 C 187.418,355.75 259.774,348.606 305.732,284.714 L 289.15,284.008 C 243.299,341.032 179.339,338.427 140.793,281.362 C 140.352,286.125 139.176,290.888 136.383,295.651"
               style="fill:#fcd0c2;fill-opacity:1;fill-rule:evenodd;stroke:none"
               id="path2734" /><path
               d="M 385.021,265.175 C 380.471,264.083 375.921,266.036 371.371,268.426 C 345.632,277.606 319.667,281.704 292.832,284.165 L 289.15,284.008 C 243.299,341.032 179.339,338.427 140.793,281.362 C 140.69,282.475 140.547,283.589 140.352,284.702 L 139.533,283.66 C 140.893,279.303 143.69,276.501 147.572,281.691 C 182.946,329.008 232.156,324.24 263.651,299.975 C 269.811,295.23 273.167,289.458 278.737,284.504 C 280.903,282.578 283.322,280.896 286.209,279.608 C 296.555,274.99 311.376,275.266 322.546,273.562 C 341.638,270.651 360.248,267.095 377.878,262.235 C 380.721,261.893 382.859,262.146 384.294,262.994 L 385.021,265.175 z"
               style="fill:#dc8172;fill-opacity:1;fill-rule:evenodd;stroke:none"
               id="path2736" /><g
               id="g2738"><g
                 id="g2740"><g
                   id="g2746"><g
                     id="g2748"><path
                       d="M 229.989,32.321 C 186.939,20.346 112.375,43.209 63.808,99.579 C 47.488,118.519 36.168,142.896 28.978,166.68 C 16.658,207.428 21.461,242.152 34.743,273.891 C 60.912,329.934 90.335,360.524 114.621,358.658 C 114.528,356.17 114.617,353.772 114.829,351.436 C 88.913,354.494 102.102,321.801 114.656,300.12 C 119.665,291.47 126.239,284.466 131.301,276.11 C 134.103,271.486 136.438,266.161 138.516,260.452 C 134.012,221.787 151.534,189.804 185.254,171.423 C 193.485,166.935 194.617,168.628 186.756,162.465 C 185.999,161.871 185.248,161.282 184.506,160.698 C 164.24,144.769 149.55,132.721 140.001,124.158 C 130.921,116.016 118.633,104.281 129.479,91.292 C 144.6,72.45 162.98,46.786 185.438,49.481 C 197.931,41.572 216.257,34.587 229.989,32.321"
                       style="fill:url(#linearGradient2750);fill-rule:evenodd;stroke:none"
                       id="path2756" /></g></g></g></g><path
               d="M 138.363,96.305 L 130.128,108.264 C 128.724,112.61 130.554,115.877 133.854,118.654 L 194.236,167.667 C 194.532,169.366 194.141,171.064 191.295,172.764 C 164.756,182.86 156.584,195.056 148.557,207.268 C 139.849,227.281 138.248,244.435 140.519,263.926 L 119.824,297.151 C 113.307,307.614 108.298,315.423 109.511,328.509 C 110.051,334.333 112.238,338.837 116.405,341.756 L 141.695,279.413 C 148.035,278.728 150.06,274.806 150.125,269.415 C 126.779,217.492 173.943,170.043 215.213,171.783 L 155.027,124.928 C 146.497,118.557 141.399,113.263 146.989,108.46 C 142.214,105.063 137.835,101.403 138.363,96.305"
               style="fill:#e9e9e9;fill-opacity:1;fill-rule:evenodd;stroke:none"
               id="path2758" /><g
               id="g2760"><g
                 id="g2762"><g
                   id="g2768"><g
                     id="g2770"><path
                       d="M 216.98,173.87 C 257.102,173.87 289.825,204.256 289.825,241.512 C 289.825,278.768 257.102,309.154 216.98,309.154 C 176.858,309.154 144.135,278.768 144.135,241.512 C 144.135,204.256 176.858,173.87 216.98,173.87"
                       style="fill:url(#radialGradient2772);fill-rule:evenodd;stroke:none"
                       id="path2786" /></g></g></g></g><path
               d="M 190.828,288.83 C 167.822,283.216 160.765,259.985 162.726,239.195 C 162.94,236.923 163.262,234.679 163.683,232.491 C 166.414,227.71 169.146,227.711 171.877,232.491 C 171.877,254.84 168.157,274.934 190.828,288.83"
               style="fill:#cceffc;fill-opacity:1;fill-rule:evenodd;stroke:none"
               id="path2788" /><path
               d="M 283.932,260.054 C 261.091,316.917 195.001,318.682 156.616,278.079 C 188.235,326.127 273.491,314.378 283.932,260.054"
               style="fill:#f3fbff;fill-opacity:1;fill-rule:evenodd;stroke:none"
               id="path2790" /><path
               d="M 207.763,291.96 C 199.914,291.86 194.775,289.321 189.321,285.617 C 179.426,278.895 183.596,273.855 193.504,282.264 C 197.889,285.986 202.658,289.197 207.763,291.96"
               style="fill:#cceffc;fill-opacity:1;fill-rule:evenodd;stroke:none"
               id="path2792" /><path
               d="M 205.681,189.981 C 169.657,194.905 150.344,234.109 151.903,252.978 C 149.755,226.779 158.938,191.015 205.681,189.981"
               style="fill:#80d6f7;fill-opacity:1;fill-rule:evenodd;stroke:none"
               id="path2794" /><path
               d="M 253.313,210.98 C 272.693,230.1 272.351,252.977 263.044,277.562 C 289.178,251.595 286.8,223.283 253.313,210.98"
               style="fill:#80d6f7;fill-opacity:1;fill-rule:evenodd;stroke:none"
               id="path2796" /><path
               d="M 299.42,251.49 C 297.048,264.061 282.699,260.978 282.699,270.702 C 312.16,270.99 336.628,261.842 361.681,253.803 C 371.595,249.645 368.102,260.171 366.84,264.832 L 379.47,261.985 C 380.923,254.479 382.678,246.948 379.292,239.927 C 353.24,252.353 326.482,262.789 297.107,265.721 L 299.42,251.49 z"
               style="fill:#e9e9e9;fill-opacity:1;fill-rule:evenodd;stroke:none"
               id="path2798" /><path
               d="M 229.604,32.15 C 195.596,39.804 162.572,56.323 140.554,89.457 C 136.246,95.168 137.557,100.88 144.486,106.592 L 217.244,163.056 C 245.277,163.782 266.181,171.975 278.483,189.181 C 295.794,209.246 304.363,233.13 296.959,265.996 C 332.231,260.168 361.657,252.354 388.833,234.155 C 396.146,231.772 396.741,238.84 394.231,247.595 C 389.35,264.235 384.128,280.875 377.69,297.516 C 386.85,284.37 396.593,267.19 401.736,241.833 C 407.306,214.366 406.78,192.364 398.583,165.503 C 375.863,91.052 312.808,33.887 229.604,32.15"
               style="fill:#fee982;fill-opacity:1;fill-rule:evenodd;stroke:none"
               id="path2800" /><path
               d="M 199.32,146.994 L 219.203,162.199 C 272.109,157.289 313.278,211.886 298.737,264.54 L 315.501,260.446 C 321.395,190.165 276.757,136.458 199.32,146.994"
               style="fill:#fffed9;fill-opacity:1;fill-rule:evenodd;stroke:none"
               id="path2802" /></g></g><path
           d="M 176.847,53.5 C 287.613,42.832 355.216,99.707 402.818,183.459 C 393.11,111.056 324.795,30.635 225.195,32.756 C 208.573,36.8 190.869,44.253 176.847,53.5"
           style="fill:#fbe26b;fill-opacity:1;fill-rule:evenodd;stroke:none"
           id="path2804" /><path
           d="M 314.899,57.503 C 315.193,67.923 310.056,78.343 302.131,88.763 C 351.591,111.563 380.648,154.601 384.462,219.083 C 394.442,215.708 401.78,208.664 404.275,200.592"
           style="fill:none;stroke:#ecaf16;stroke-opacity:1;stroke-width:1.075;stroke-linecap:butt;stroke-linejoin:miter;stroke-miterlimit:22.926;stroke-dasharray:none"
           id="path2806" /><path
           d="M 262.066,36.579 C 249.261,42.991 245.168,51.58 241.814,60.354 C 240.2,64.17 240.934,66.812 244.016,68.279 L 279.678,77.524 C 285.622,67.398 290.821,55.638 290.894,45.512"
           style="fill:none;stroke:#ecaf16;stroke-opacity:1;stroke-width:1.075;stroke-linecap:butt;stroke-linejoin:miter;stroke-miterlimit:22.926;stroke-dasharray:none"
           id="path2808" /><g
           id="g2810"><g
             id="g2812"
             clip-path="url(#clipPath2814)"><path
               d="M -32.506,210.421 L 281.93,210.421 L 281.93,-39.159 L -32.506,-39.159 L -32.506,210.421 z"
               style="fill:#ffffff;fill-opacity:1;fill-rule:evenodd;stroke:none"
               id="path2818" /><path
               d="M 86.02,333.851 L 106.473,355.765 L 119.783,353.655 L 92.837,327.521 L 86.02,333.851 z"
               style="fill:#918f90;fill-opacity:1;fill-rule:evenodd;stroke:none"
               id="path2820" /><path
               d="M 133.094,87.77 L 150.787,60.662 L 180.167,45.728 L 187.472,50.436 L 133.094,87.77 z"
               style="fill:#918f90;fill-opacity:1;fill-rule:evenodd;stroke:none"
               id="path2822" /><path
               d="M 380.4,238.537 L 394.05,229.616 L 401.25,242.728 L 375.779,301.086 L 380.4,238.537 z"
               style="fill:#918f90;fill-opacity:1;fill-rule:evenodd;stroke:none"
               id="path2824" /><path
               d="M 380.4,238.537 L 394.05,229.616 L 401.25,242.728 L 375.779,301.086 L 380.4,238.537 z"
               style="fill:none;stroke:#636061;stroke-opacity:1;stroke-width:0.567;stroke-linecap:butt;stroke-linejoin:miter;stroke-miterlimit:22.926;stroke-dasharray:none"
               id="path2826" /><path
               d="M 214.378,379.397 C 275.2,379.397 314.813,335.503 357.473,298.381 C 402.227,259.436 380.723,162.414 352.441,119.998 C 322.517,75.118 271.842,45.09 214.378,45.09 C 122.437,45.09 78.444,168.791 71.94,257.771 C 73.241,341.549 122.437,379.397 214.378,379.397"
               style="fill:#827f80;fill-opacity:1;fill-rule:evenodd;stroke:none"
               id="path2828" /><path
               d="M 139.042,285.59 C 135.529,302.899 108.779,334.516 115.702,367.769 C 219.806,430.672 355.938,377.533 382.813,283.371 C 384.018,279.147 388.543,267.001 385.143,263.643 C 383.77,262.287 381.349,261.817 377.878,262.235 C 360.248,267.095 341.638,270.651 322.546,273.562 C 311.376,275.266 296.555,274.99 286.209,279.608 C 283.322,280.896 280.903,282.578 278.737,284.504 C 273.167,289.458 269.811,295.23 263.651,299.975 C 232.156,324.24 182.946,329.008 147.572,281.691 C 143.139,275.765 140.121,280.259 139.042,285.59"
               style="fill:#f25544;fill-opacity:1;fill-rule:evenodd;stroke:none"
               id="path2830" /><path
               d="M 153.962,366.235 C 155.628,361.089 143.974,351.276 135.914,348.162 C 129.521,345.691 125.669,350.036 128.791,356.253 C 133.27,365.175 152.571,370.53 153.962,366.235"
               style="fill:#fccebe;fill-opacity:1;fill-rule:evenodd;stroke:none"
               id="path2832" /><path
               d="M 123.298,329.208 C 121.731,333.602 119.967,338.001 117.974,342.405 C 116.999,344.56 115.505,346.628 117.719,348.689 C 121.141,351.873 129.568,342.352 126.232,329.055 C 124.857,323.569 124.867,324.807 123.298,329.208"
               style="fill:#fccebe;fill-opacity:1;fill-rule:evenodd;stroke:none"
               id="path2834" /><path
               d="M 136.383,295.651 C 187.418,355.75 259.774,348.606 305.732,284.714 L 289.15,284.008 C 243.299,341.032 179.339,338.427 140.793,281.362 C 140.352,286.125 139.176,290.888 136.383,295.651"
               style="fill:#fbbfac;fill-opacity:1;fill-rule:evenodd;stroke:none"
               id="path2836" /><path
               d="M 385.021,265.175 C 380.471,264.083 375.921,266.036 371.371,268.426 C 345.632,277.606 319.667,281.704 292.832,284.165 L 289.15,284.008 C 243.299,341.032 179.339,338.427 140.793,281.362 C 140.69,282.475 140.547,283.589 140.352,284.702 L 139.533,283.66 C 140.893,279.303 143.69,276.501 147.572,281.691 C 182.946,329.008 232.156,324.24 263.651,299.975 C 269.811,295.23 273.167,289.458 278.737,284.504 C 280.903,282.578 283.322,280.896 286.209,279.608 C 296.555,274.99 311.376,275.266 322.546,273.562 C 341.638,270.651 360.248,267.095 377.878,262.235 C 380.721,261.893 382.859,262.146 384.294,262.994 L 385.021,265.175 z"
               style="fill:#d1554d;fill-opacity:1;fill-rule:evenodd;stroke:none"
               id="path2838" /><g
               id="g2840"><g
                 id="g2842"><g
                   id="g2848"><g
                     id="g2850"><path
                       d="M 229.989,32.321 C 186.939,20.346 112.375,43.209 63.808,99.579 C 47.488,118.519 36.168,142.896 28.978,166.68 C 16.658,207.428 21.461,242.152 34.743,273.891 C 60.912,329.934 90.335,360.524 114.621,358.658 C 114.528,356.17 114.617,353.772 114.829,351.436 C 88.913,354.494 102.102,321.801 114.656,300.12 C 119.665,291.47 126.239,284.466 131.301,276.11 C 134.103,271.486 136.438,266.161 138.516,260.452 C 134.012,221.787 151.534,189.804 185.254,171.423 C 193.485,166.935 194.617,168.628 186.756,162.465 C 185.999,161.871 185.248,161.282 184.506,160.698 C 164.24,144.769 149.55,132.721 140.001,124.158 C 130.921,116.016 118.633,104.281 129.479,91.292 C 144.6,72.45 162.98,46.786 185.438,49.481 C 197.931,41.572 216.257,34.587 229.989,32.321"
                       style="fill:url(#linearGradient2852);fill-rule:evenodd;stroke:none"
                       id="path2858" /></g></g></g></g><path
               d="M 138.363,96.305 L 130.128,108.264 C 128.724,112.61 130.554,115.877 133.854,118.654 L 194.236,167.667 C 194.532,169.366 194.141,171.064 191.295,172.764 C 164.756,182.86 156.584,195.056 148.557,207.268 C 139.849,227.281 138.248,244.435 140.519,263.926 L 119.824,297.151 C 113.307,307.614 108.298,315.423 109.511,328.509 C 110.051,334.333 112.238,338.837 116.405,341.756 L 141.695,279.413 C 148.035,278.728 150.06,274.806 150.125,269.415 C 126.779,217.492 173.943,170.043 215.213,171.783 L 155.027,124.928 C 146.497,118.557 141.399,113.263 146.989,108.46 C 142.214,105.063 137.835,101.403 138.363,96.305"
               style="fill:#e1e0e0;fill-opacity:1;fill-rule:evenodd;stroke:none"
               id="path2860" /><g
               id="g2862"><g
                 id="g2864"><g
                   id="g2870"><g
                     id="g2872"><path
                       d="M 216.98,173.87 C 257.102,173.87 289.825,204.256 289.825,241.512 C 289.825,278.768 257.102,309.154 216.98,309.154 C 176.858,309.154 144.135,278.768 144.135,241.512 C 144.135,204.256 176.858,173.87 216.98,173.87"
                       style="fill:url(#radialGradient2874);fill-rule:evenodd;stroke:none"
                       id="path2888" /></g></g></g></g><path
               d="M 190.828,288.83 C 167.822,283.216 160.765,259.985 162.726,239.195 C 162.94,236.923 163.262,234.679 163.683,232.491 C 166.414,227.71 169.146,227.711 171.877,232.491 C 171.877,254.84 168.157,274.934 190.828,288.83"
               style="fill:#b8e8fb;fill-opacity:1;fill-rule:evenodd;stroke:none"
               id="path2890" /><path
               d="M 283.932,260.054 C 261.091,316.917 195.001,318.682 156.616,278.079 C 188.235,326.127 273.491,314.378 283.932,260.054"
               style="fill:#eefafe;fill-opacity:1;fill-rule:evenodd;stroke:none"
               id="path2892" /><path
               d="M 207.763,291.96 C 199.914,291.86 194.775,289.321 189.321,285.617 C 179.426,278.895 183.596,273.855 193.504,282.264 C 197.889,285.986 202.658,289.197 207.763,291.96"
               style="fill:#b8e8fb;fill-opacity:1;fill-rule:evenodd;stroke:none"
               id="path2894" /><path
               d="M 205.681,189.981 C 169.657,194.905 150.344,234.109 151.903,252.978 C 149.755,226.779 158.938,191.015 205.681,189.981"
               style="fill:#4ac5f4;fill-opacity:1;fill-rule:evenodd;stroke:none"
               id="path2896" /><path
               d="M 253.313,210.98 C 272.693,230.1 272.351,252.977 263.044,277.562 C 289.178,251.595 286.8,223.283 253.313,210.98"
               style="fill:#4ac5f4;fill-opacity:1;fill-rule:evenodd;stroke:none"
               id="path2898" /><path
               d="M 299.42,251.49 C 297.048,264.061 282.699,260.978 282.699,270.702 C 312.16,270.99 336.628,261.842 361.681,253.803 C 371.595,249.645 368.102,260.171 366.84,264.832 L 379.47,261.985 C 380.923,254.479 382.678,246.948 379.292,239.927 C 353.24,252.353 326.482,262.789 297.107,265.721 L 299.42,251.49 z"
               style="fill:#e1e0e0;fill-opacity:1;fill-rule:evenodd;stroke:none"
               id="path2900" /><path
               d="M 229.604,32.15 C 195.596,39.804 162.572,56.323 140.554,89.457 C 136.246,95.168 137.557,100.88 144.486,106.592 L 217.244,163.056 C 245.277,163.782 266.181,171.975 278.483,189.181 C 295.794,209.246 304.363,233.13 296.959,265.996 C 332.231,260.168 361.657,252.354 388.833,234.155 C 396.146,231.772 396.741,238.84 394.231,247.595 C 389.35,264.235 384.128,280.875 377.69,297.516 C 386.85,284.37 396.593,267.19 401.736,241.833 C 407.306,214.366 406.78,192.364 398.583,165.503 C 375.863,91.052 312.808,33.887 229.604,32.15"
               style="fill:#fee250;fill-opacity:1;fill-rule:evenodd;stroke:none"
               id="path2902" /><path
               d="M 199.32,146.994 L 219.203,162.199 C 272.109,157.289 313.278,211.886 298.737,264.54 L 315.501,260.446 C 321.395,190.165 276.757,136.458 199.32,146.994"
               style="fill:#fffdca;fill-opacity:1;fill-rule:evenodd;stroke:none"
               id="path2904" /><path
               d="M 176.847,53.5 C 287.613,42.832 355.216,99.707 402.818,183.459 C 393.11,111.056 324.795,30.635 225.195,32.756 C 208.573,36.8 190.869,44.253 176.847,53.5"
               style="fill:#feec93;fill-opacity:1;fill-rule:evenodd;stroke:none"
               id="path2906" /><path
               d="M 314.899,57.503 C 315.193,67.923 310.056,78.343 302.131,88.763 C 351.591,111.563 380.648,154.601 384.462,219.083 C 394.442,215.708 401.78,208.664 404.275,200.592"
               style="fill:none;stroke:#f2c551;stroke-opacity:1;stroke-width:1.075;stroke-linecap:butt;stroke-linejoin:miter;stroke-miterlimit:22.926;stroke-dasharray:none"
               id="path2908" /><path
               d="M 262.066,36.579 C 249.261,42.991 245.168,51.58 241.814,60.354 C 240.2,64.17 240.934,66.812 244.016,68.279 L 279.678,77.524 C 285.622,67.398 290.821,55.638 290.894,45.512"
               style="fill:none;stroke:#f2c551;stroke-opacity:1;stroke-width:1.075;stroke-linecap:butt;stroke-linejoin:miter;stroke-miterlimit:22.926;stroke-dasharray:none"
               id="path2910" /></g></g><path
           d="M 179.076,156.604 L 133.51,121.555 C 126.742,116.348 115.197,110.604 116.08,100.506 C 116.355,97.355 117.912,94.204 120.748,91.053 C 125.93,84.28 131.188,78.074 136.524,72.456 C 161.5,46.153 189.202,33.217 217.892,34.751 C 205.481,38.953 193.155,43.378 183.438,49.373 C 180.076,48.946 176.209,49.852 172.849,51.097 C 160.33,55.733 146.515,69.924 136.66,82.304 C 128.56,92.481 119.859,102.255 130.929,114 C 134.529,117.819 139.044,121.166 141.923,123.747 L 179.076,156.604 z"
           style="fill:#22703f;fill-opacity:1;fill-rule:evenodd;stroke:none"
           id="path2912" /></g></g></g></svg>