<?xml version="1.0" encoding="UTF-8" standalone="no"?>
<!-- Created with Inkscape (http://www.inkscape.org/) -->
<svg
   xmlns:svg="http://www.w3.org/2000/svg"
   xmlns="http://www.w3.org/2000/svg"
   version="1.0"
   width="800"
   height="282.39301"
   viewBox="0 0 800 282.393"
   id="Layer_1"
   xml:space="preserve"><defs
   id="defs24" />
<g
   id="g3">
	<g
   id="g5">
		<g
   id="g7">
			<g
   id="g9">
				<path
   d="M 759.101,107.396 C 764.383,105.445 767.17,103.778 767.17,99.882 C 767.17,88.759 754.651,75.957 739.624,75.957 C 728.494,75.957 707.632,84.582 707.632,114.63 C 707.632,119.361 708.185,124.368 708.465,129.38 L 759.101,107.396 z M 785.253,190.304 C 782.194,191.971 779.132,193.922 776.072,195.314 C 766.886,199.483 757.428,200.596 749.085,200.596 C 740.184,200.596 726.268,200.033 712.08,189.744 C 692.333,175.827 683.706,151.912 683.706,131.042 C 683.706,87.92 718.764,66.78 747.418,66.78 C 757.429,66.78 767.731,69.284 776.072,74.574 C 789.978,83.742 793.596,95.705 795.541,102.108 L 730.166,128.538 L 708.745,130.21 C 715.698,165.538 739.624,186.127 766.054,186.127 C 780.243,186.127 790.539,181.12 800,176.389 L 785.253,190.304"
   style="fill:#fa0029"
   id="path11" />
				<path
   d="M 677.023,196.417 L 627.778,196.417 C 634.181,188.07 635.294,187.239 635.294,181.679 L 635.294,136.33 C 635.294,114.629 635.572,83.74 636.405,54.815 C 636.687,40.626 637.798,22.822 638.076,10.019 L 616.375,10.019 L 637.249,0 L 677.024,0 C 668.409,5.021 665.621,6.683 664.51,16.421 C 662.286,37.842 662.008,71.788 662.008,111.294 L 662.008,175.557 C 662.008,186.409 663.949,188.07 673.137,188.911 C 677.866,189.471 682.593,189.744 687.324,190.304 L 677.023,196.417 z "
   style="fill:#138f34"
   id="path13" />
				<path
   d="M 574.098,151.078 C 580.489,144.668 581.049,135.77 581.049,130.759 C 581.049,110.734 569.086,79.571 545.994,79.571 C 538.76,79.571 530.971,83.191 526.515,88.76 C 521.786,94.603 520.392,102.107 520.392,109.341 C 520.392,127.977 531.244,158.865 555.169,158.865 C 562.125,158.865 569.639,155.527 574.098,151.078 z M 566.021,203.934 C 563.796,203.651 562.403,203.651 559.628,203.651 C 557.123,203.651 542.096,204.212 530.41,208.109 C 524.29,210.334 506.485,217.007 506.485,236.763 C 506.485,256.513 525.682,270.698 555.452,270.698 C 582.162,270.698 596.349,257.906 596.349,240.659 C 596.349,226.465 587.171,218.961 566.021,203.934 M 585.777,80.404 C 592.173,85.693 605.529,96.818 605.529,117.968 C 605.529,138.556 593.844,148.294 582.161,157.471 C 578.543,161.089 574.365,164.985 574.365,171.108 C 574.365,177.228 578.543,180.568 581.598,183.07 L 591.617,190.855 C 603.862,201.147 614.985,210.612 614.985,229.813 C 614.985,255.96 589.668,282.393 541.813,282.393 C 501.478,282.393 482,263.197 482,242.604 C 482,232.588 487.009,218.401 503.43,208.66 C 520.675,198.088 544.05,196.707 556.563,195.866 C 552.667,190.855 548.218,185.565 548.218,176.948 C 548.218,172.219 549.607,169.434 551,166.096 C 547.935,166.369 544.882,166.656 542.095,166.656 C 512.607,166.656 495.915,144.668 495.915,122.974 C 495.915,110.183 501.755,95.984 513.718,85.693 C 529.579,72.619 548.495,70.395 563.518,70.395 L 620.827,70.395 L 603.022,80.404 L 585.777,80.404"
   style="fill:#0860a8"
   id="path15" />
				<path
   d="M 448.065,177.499 C 454.736,168.606 456.41,157.471 456.41,146.622 C 456.41,122.136 444.718,75.406 410.223,75.406 C 401.045,75.406 391.857,79.019 385.184,84.862 C 374.342,94.602 372.391,106.843 372.391,118.805 C 372.391,146.341 386.016,191.687 419.682,191.687 C 430.533,191.688 441.662,186.409 448.065,177.499 z M 413.286,200.033 C 369.054,200.033 345.405,165.536 345.405,134.377 C 345.405,97.938 375.176,66.779 417.457,66.779 C 458.357,66.779 483.954,98.771 483.954,132.435 C 483.953,165.258 458.634,200.033 413.286,200.033"
   style="fill:#ffe500"
   id="path17" />
				<path
   d="M 300.05,177.499 C 306.733,168.606 308.397,157.471 308.397,146.622 C 308.397,122.136 296.717,75.406 262.217,75.406 C 253.029,75.406 243.854,79.019 237.181,84.862 C 226.329,94.602 224.375,106.843 224.375,118.805 C 224.375,146.341 238.011,191.687 271.675,191.687 C 282.526,191.688 293.659,186.409 300.05,177.499 z M 265.275,200.033 C 221.037,200.033 197.394,165.536 197.394,134.377 C 197.394,97.938 227.16,66.779 269.451,66.779 C 310.341,66.779 335.94,98.771 335.94,132.435 C 335.94,165.258 310.628,200.033 265.275,200.033"
   style="fill:#fa0029"
   id="path19" />
				<path
   d="M 179.706,190.331 L 142.411,198.939 C 127.28,201.283 113.713,203.374 99.372,203.374 C 27.381,203.373 0,150.425 0,108.95 C 0,58.346 38.862,11.402 105.375,11.402 C 119.459,11.402 133.019,13.49 145.279,16.881 C 164.842,22.364 173.969,29.141 179.706,33.053 L 158.056,53.663 L 148.929,55.741 L 155.454,45.303 C 146.59,36.704 130.403,20.793 99.637,20.793 C 58.424,20.793 27.382,52.098 27.382,97.744 C 27.382,146.773 62.856,192.938 119.715,192.938 C 136.416,192.938 145.017,189.55 152.838,186.418 L 152.838,144.422 L 113.459,146.509 L 134.319,135.294 L 189.619,135.294 L 182.843,141.814 C 181.011,143.38 180.755,143.904 180.228,145.982 C 179.964,148.338 179.708,155.9 179.708,158.505 L 179.708,190.331 L 179.706,190.331 z "
   style="fill:#0860a8"
   id="path21" />
			</g>
		</g>
	</g>
</g>
</svg>