<?xml version="1.0" encoding="UTF-8" standalone="no"?>
<!-- Generator: Adobe Illustrator 12.0.0, SVG Export Plug-In . SVG Version: 6.00 Build 51448)  -->
<svg
   xmlns:dc="http://purl.org/dc/elements/1.1/"
   xmlns:cc="http://creativecommons.org/ns#"
   xmlns:rdf="http://www.w3.org/1999/02/22-rdf-syntax-ns#"
   xmlns:svg="http://www.w3.org/2000/svg"
   xmlns="http://www.w3.org/2000/svg"
   xmlns:xlink="http://www.w3.org/1999/xlink"
   xmlns:sodipodi="http://sodipodi.sourceforge.net/DTD/sodipodi-0.dtd"
   xmlns:inkscape="http://www.inkscape.org/namespaces/inkscape"
   version="1.0"
   width="173.22604"
   height="152.96626"
   viewBox="0 0 812.044 152.966"
   overflow="visible"
   enable-background="new 0 0 812.044 152.966"
   xml:space="preserve"
   id="svg2"
   sodipodi:version="0.32"
   inkscape:version="0.46"
   sodipodi:docname="windows.svg"
   inkscape:output_extension="org.inkscape.output.svg.inkscape"
   style="overflow:visible"><metadata
   id="metadata501"><rdf:RDF><cc:Work
       rdf:about=""><dc:format>image/svg+xml</dc:format><dc:type
         rdf:resource="http://purl.org/dc/dcmitype/StillImage" /></cc:Work></rdf:RDF></metadata><defs
   id="defs499"><inkscape:perspective
     sodipodi:type="inkscape:persp3d"
     inkscape:vp_x="0 : 76.483002 : 1"
     inkscape:vp_y="0 : 1000 : 0"
     inkscape:vp_z="812.04401 : 76.483002 : 1"
     inkscape:persp3d-origin="406.022 : 50.988668 : 1"
     id="perspective503" /></defs><sodipodi:namedview
   inkscape:window-height="768"
   inkscape:window-width="1280"
   inkscape:pageshadow="2"
   inkscape:pageopacity="0.0"
   guidetolerance="10.0"
   gridtolerance="10.0"
   objecttolerance="10.0"
   borderopacity="1.0"
   bordercolor="#666666"
   pagecolor="#ffffff"
   id="base"
   showgrid="false"
   inkscape:zoom="1.476521"
   inkscape:cx="406.022"
   inkscape:cy="76.483002"
   inkscape:window-x="0"
   inkscape:window-y="0"
   inkscape:current-layer="svg2"
   inkscape:showpageshadow="false"
   inkscape:snap-bbox="true"
   inkscape:object-paths="true"
   inkscape:object-nodes="true"
   inkscape:bbox-paths="true"
   inkscape:bbox-nodes="true" />

<g
   id="flag"
   transform="matrix(4.6839151,0,0,4.6944612,4.2785075e-3,-282.56097)">
	<g
   id="g50">
		<path
   id="path52"
   d=""
   style="fill:none" />
	</g>
	<g
   id="g54">
		<g
   id="g56">
			<path
   d="M 170.407,21.106 C 137.411,34.75 121.54,27.105 107.243,17.482 C 107.276,17.356 107.335,17.112 107.239,16.878 C 121.536,26.503 137.725,34.249 170.719,20.607 C 170.5,20.808 170.5,20.908 170.407,21.106 z"
   id="path58"
   style="fill:#83b641" />
			<polygon
   clip-rule="evenodd"
   points="104.723,18.161 105.901,17.319 89.786,73.298 88.544,74.281 88.545,74.152 104.723,18.161 "
   id="polygon60"
   style="fill:#8aa742;fill-rule:evenodd" />
			<linearGradient
   id="XMLID_39_"
   gradientUnits="userSpaceOnUse"
   x1="99.226601"
   y1="45.670399"
   x2="97.722702"
   y2="45.239201">
				<stop
   offset="0"
   style="stop-color:#8AA742"
   id="stop63" />
				<stop
   offset="0.1"
   style="stop-color:#8AA742"
   id="stop65" />
				<stop
   offset="0.25"
   style="stop-color:#B7CA33"
   id="stop67" />
				<stop
   offset="0.4045"
   style="stop-color:#B7CA33"
   id="stop69" />
				<stop
   offset="1"
   style="stop-color:#8AA742"
   id="stop71" />
			</linearGradient>
			<path
   d="M 91,73.923 C 90.498,73.642 90.136,73.076 89.69,73.251 L 105.845,17.344 C 106.093,17.233 106.718,17.019 107.308,17.484 L 91,73.923 z"
   id="path73"
   style="fill:url(#XMLID_39_)" />
			<path
   clip-rule="evenodd"
   d="M 106.053,16.956 L 105.887,17.356 L 104.709,18.207 C 104.809,17.825 105.707,17.188 105.984,16.995 C 106.036,16.959 106.053,16.956 106.053,16.956 z"
   id="path75"
   style="fill:#8aa742;fill-rule:evenodd" />
			<linearGradient
   id="XMLID_40_"
   gradientUnits="userSpaceOnUse"
   x1="107.3105"
   y1="17.1113"
   x2="105.8649"
   y2="17.010201">
				<stop
   offset="0"
   style="stop-color:#83B641"
   id="stop78" />
				<stop
   offset="0.2"
   style="stop-color:#B7CA33"
   id="stop80" />
				<stop
   offset="0.525"
   style="stop-color:#B7CA33"
   id="stop82" />
				<stop
   offset="1"
   style="stop-color:#8AA742"
   id="stop84" />
			</linearGradient>
			<path
   d="M 107.252,17.444 C 106.641,17.067 106.09,17.25 105.84,17.358 C 105.879,17.239 105.985,16.995 105.985,16.995 C 106.516,16.659 106.747,16.643 107.243,16.88 C 107.307,17.065 107.334,17.243 107.252,17.444 z"
   id="path86"
   style="fill:url(#XMLID_40_)" />
			<linearGradient
   id="XMLID_41_"
   gradientUnits="userSpaceOnUse"
   x1="170.7686"
   y1="20.5767"
   x2="171.4149"
   y2="21.6523">
				<stop
   offset="0"
   style="stop-color:#83B641"
   id="stop89" />
				<stop
   offset="1"
   style="stop-color:#595E48"
   id="stop91" />
			</linearGradient>
			<path
   clip-rule="evenodd"
   d="M 171.631,21.522 C 171.631,21.522 171.262,21.013 170.379,21.176 C 170.457,20.967 170.457,20.771 170.719,20.606 C 171.25,20.526 171.508,20.666 171.621,20.775 C 171.684,20.837 171.703,20.888 171.703,20.888 C 171.774,21.2 171.631,21.522 171.631,21.522 z"
   id="path93"
   style="fill:url(#XMLID_41_);fill-rule:evenodd" />
			<linearGradient
   id="XMLID_42_"
   gradientUnits="userSpaceOnUse"
   x1="172.43359"
   y1="21.408701"
   x2="172.026"
   y2="21.894501">
				<stop
   offset="0"
   style="stop-color:#8AA742"
   id="stop96" />
				<stop
   offset="1"
   style="stop-color:#595E48"
   id="stop98" />
			</linearGradient>
			<path
   clip-rule="evenodd"
   d="M 171.622,20.775 L 172.927,21.822 C 173.005,22.172 172.837,22.527 172.837,22.527 L 171.528,21.476 C 171.528,21.476 171.692,21.086 171.622,20.775 z"
   id="path100"
   style="fill:url(#XMLID_42_);fill-rule:evenodd" />
			<polygon
   clip-rule="evenodd"
   points="155.243,77.619 171.555,21.402 172.887,22.461 156.481,78.712 155.243,77.619 "
   id="polygon102"
   style="fill:#595e48;fill-rule:evenodd" />
			<path
   clip-rule="evenodd"
   d="M 156.801,79.119 C 156.836,78.798 156.494,78.533 156.494,78.533 L 172.87,22.41 C 172.87,22.41 173.13,22.644 173.2,22.813 L 156.801,79.119 z"
   id="path104"
   style="fill:#767e47;fill-rule:evenodd" />
			<linearGradient
   id="XMLID_43_"
   gradientUnits="userSpaceOnUse"
   x1="173.0415"
   y1="21.805201"
   x2="173.0415"
   y2="22.834499">
				<stop
   offset="0"
   style="stop-color:#8AA742"
   id="stop107" />
				<stop
   offset="1"
   style="stop-color:#767E47"
   id="stop109" />
			</linearGradient>
			<path
   clip-rule="evenodd"
   d="M 173.196,22.834 C 173.196,22.834 173.137,22.673 172.858,22.438 C 172.985,21.91 172.901,21.804 172.901,21.804 L 172.926,21.821 C 172.926,21.822 173.336,22.195 173.196,22.834 z"
   id="path111"
   style="fill:url(#XMLID_43_);fill-rule:evenodd" />
			<path
   clip-rule="evenodd"
   d="M 156.254,79.643 C 147.436,83.647 139.09,85.713 131.34,86.389 C 117.957,87.909 107.135,84.998 98.293,80.655 C 94.855,79.077 91.742,77.291 88.988,75.436 L 89.137,75.307 C 91.929,77.186 94.972,79.022 98.292,80.655 C 107.276,84.78 118.487,87.503 131.339,86.389 C 138.659,85.561 146.745,83.401 155.694,79.432 C 155.946,79.635 156.254,79.643 156.254,79.643 z"
   id="path113"
   style="fill:#595e48;fill-rule:evenodd" />
			<linearGradient
   id="XMLID_44_"
   gradientUnits="userSpaceOnUse"
   x1="155.31979"
   y1="77.9375"
   x2="153.9102"
   y2="77.838898">
				<stop
   offset="0"
   style="stop-color:#767E47"
   id="stop116" />
				<stop
   offset="1"
   style="stop-color:#8AA742"
   id="stop118" />
			</linearGradient>
			<path
   d="M 154.473,78.599 C 154.473,78.599 153.842,78.033 153.957,77.204 C 154.805,76.987 155.348,77.524 155.348,77.524 C 155.348,77.524 155.192,78.287 154.473,78.599 z"
   id="path120"
   style="fill:url(#XMLID_44_)" />
			<linearGradient
   id="XMLID_45_"
   gradientUnits="userSpaceOnUse"
   x1="155.9819"
   y1="78.063499"
   x2="155.0714"
   y2="79.074699">
				<stop
   offset="0"
   style="stop-color:#767E47"
   id="stop123" />
				<stop
   offset="1"
   style="stop-color:#595E48"
   id="stop125" />
			</linearGradient>
			<path
   clip-rule="evenodd"
   d="M 155.348,77.525 L 156.534,78.56 C 156.534,78.56 156.352,79.209 155.632,79.525 L 154.427,78.493 C 155.149,78.177 155.348,77.525 155.348,77.525 z"
   id="path127"
   style="fill:url(#XMLID_45_);fill-rule:evenodd" />
			<linearGradient
   id="XMLID_46_"
   gradientUnits="userSpaceOnUse"
   x1="90.360802"
   y1="79.838898"
   x2="154.6489"
   y2="79.838898">
				<stop
   offset="0"
   style="stop-color:#8AA742"
   id="stop130" />
				<stop
   offset="0.4"
   style="stop-color:#B7CA33"
   id="stop132" />
				<stop
   offset="1"
   style="stop-color:#8AA742"
   id="stop134" />
			</linearGradient>
			<path
   d="M 154.153,77.187 C 154.038,78.017 154.649,78.623 154.649,78.623 C 121.647,92.268 104.645,84.233 90.361,74.557 C 90.612,74.373 90.651,74.375 90.814,73.793 C 105.096,83.471 126.684,90.252 154.153,77.187 z"
   id="path136"
   style="fill:url(#XMLID_46_)" />
			<path
   clip-rule="evenodd"
   d="M 89.144,75.365 L 90.371,74.545 C 104.661,83.745 121.54,91.702 154.507,78.455 L 155.7,79.491 C 124.047,93.455 103.797,85.678 89.144,75.365 z"
   id="path138"
   style="fill:#767e47;fill-rule:evenodd" />
			<path
   clip-rule="evenodd"
   d="M 156.801,79.119 C 156.637,79.42 156.35,79.592 156.254,79.642 C 156.234,79.654 156.221,79.654 156.221,79.654 C 156.221,79.654 155.996,79.685 155.696,79.49 C 156.341,79.138 156.528,78.435 156.528,78.435 C 156.528,78.435 156.903,78.748 156.801,79.119 z"
   id="path140"
   style="fill:#767e47;fill-rule:evenodd" />
			<path
   clip-rule="evenodd"
   d="M 89.189,75.349 L 89.042,75.47 C 89.042,75.47 88.238,75.036 88.546,74.152 C 88.618,75.021 89.189,75.349 89.189,75.349 z"
   id="path142"
   style="fill:#767e47;fill-rule:evenodd" />
			<linearGradient
   id="XMLID_47_"
   gradientUnits="userSpaceOnUse"
   x1="89.9692"
   y1="74.917"
   x2="88.951202"
   y2="73.786301">
				<stop
   offset="0"
   style="stop-color:#767E47"
   id="stop145" />
				<stop
   offset="0.1"
   style="stop-color:#767E47"
   id="stop147" />
				<stop
   offset="0.65"
   style="stop-color:#83B641"
   id="stop149" />
				<stop
   offset="1"
   style="stop-color:#8AA742"
   id="stop151" />
			</linearGradient>
			<path
   d="M 88.545,74.152 L 89.729,73.216 C 89.66,74.118 90.44,74.493 90.44,74.493 L 89.236,75.419 C 89.236,75.419 88.477,75.056 88.545,74.152 z"
   id="path153"
   style="fill:url(#XMLID_47_)" />
			<linearGradient
   id="XMLID_48_"
   gradientUnits="userSpaceOnUse"
   x1="89.935501"
   y1="73.087402"
   x2="90.676498"
   y2="74.424103">
				<stop
   offset="0"
   style="stop-color:#8AA742"
   id="stop156" />
				<stop
   offset="0.4045"
   style="stop-color:#83B641"
   id="stop158" />
				<stop
   offset="0.8"
   style="stop-color:#8AA742"
   id="stop160" />
				<stop
   offset="1"
   style="stop-color:#8AA742"
   id="stop162" />
			</linearGradient>
			<path
   d="M 89.703,73.216 C 90.108,73.093 90.474,73.513 90.97,73.898 C 90.809,74.482 90.667,74.382 90.416,74.568 C 90.122,74.392 89.628,73.958 89.703,73.216 z"
   id="path164"
   style="fill:url(#XMLID_48_)" />
			<linearGradient
   id="XMLID_49_"
   gradientUnits="userSpaceOnUse"
   x1="163.58501"
   y1="49.529301"
   x2="162.0867"
   y2="49.099701">
				<stop
   offset="0"
   style="stop-color:#595E48"
   id="stop167" />
				<stop
   offset="1"
   style="stop-color:#83B641"
   id="stop169" />
			</linearGradient>
			<path
   d="M 153.997,77.314 L 170.329,21.125 C 171.212,20.962 171.634,21.462 171.634,21.462 L 155.349,77.525 C 155.348,77.525 154.696,77.025 153.997,77.314 z"
   id="path171"
   style="fill:url(#XMLID_49_)" />
			<g
   id="g173">
				<defs
   id="defs175">
					<path
   id="XMLID_12_"
   d="M 107.254,17.442 C 121.551,27.063 137.41,34.732 170.406,21.09 L 154.15,77.255 C 126.609,90.177 105.148,83.533 90.867,73.857 L 107.254,17.442 z" />
				</defs>
				<clipPath
   id="XMLID_50_">
					<use
   xlink:href="#XMLID_12_"
   id="use179"
   x="0"
   y="0"
   width="812.04401"
   height="152.966" />
				</clipPath>
			</g>
		</g>
		<linearGradient
   id="XMLID_51_"
   gradientUnits="userSpaceOnUse"
   x1="159.86909"
   y1="57.839802"
   x2="100.4596"
   y2="40.804401">
			<stop
   offset="0"
   style="stop-color:#6FBC48"
   id="stop182" />
			<stop
   offset="0.3333"
   style="stop-color:#98C74F"
   id="stop184" />
			<stop
   offset="0.6666"
   style="stop-color:#80C046"
   id="stop186" />
			<stop
   offset="1"
   style="stop-color:#607D3A"
   id="stop188" />
		</linearGradient>
		<path
   d="M 170.407,21.09 C 137.411,34.732 121.546,27.063 107.247,17.44 L 90.969,73.902 C 105.254,83.58 122.5,91.537 154.157,77.365 L 170.407,21.09 z"
   id="path190"
   style="fill:url(#XMLID_51_)" />
	</g>
	<g
   id="g192">
		<g
   id="g194">
			<path
   clip-rule="evenodd"
   d="M 1.36,132.346 C 1.468,132.362 1.667,132.268 1.667,132.268 C 1.896,132.424 2.078,132.534 2.078,132.534 C 2.078,132.534 1.72,132.619 1.36,132.346 z"
   id="path196"
   style="fill:#313c7e;fill-rule:evenodd" />
			<path
   d="M 62.57,135.236 C 62.57,135.236 62.789,135.439 63.041,135.369 L 62.052,135.955 C 61.736,136.096 61.411,135.873 61.411,135.873 L 62.57,135.236 z"
   id="path198"
   style="fill:#313c7e" />
			<path
   d="M 1.68,132.275 C 1.68,132.275 1.487,132.373 1.378,132.357 L 0.293,131.529 L 0.268,131.506 C 0.425,131.561 0.606,131.533 0.679,131.518 L 1.68,132.275 z"
   id="path200"
   style="fill:#313c7e" />
			<path
   d="M 63.125,134.428 C 63.238,134.51 63.357,134.6 63.469,134.826 C 63.406,135.123 63.158,135.275 63.018,135.385 C 62.816,135.432 62.533,135.24 62.533,135.24 C 62.691,135.107 62.961,134.916 63.125,134.428 z"
   id="path202"
   style="fill:#2e499e" />
			<g
   id="g204">
				<g
   id="g206">
					<rect
   x="16.084"
   y="74.602997"
   clip-rule="evenodd"
   width="0.324"
   height="0.017999999"
   id="rect208"
   style="fill:#2e499e;fill-rule:evenodd" />
				</g>
			</g>
			<polygon
   clip-rule="evenodd"
   points="16.086,74.56 16.267,74.611 0.207,130.799 0.023,130.752 16.086,74.56 "
   id="polygon210"
   style="fill:#2e499e;fill-rule:evenodd" />
			<path
   clip-rule="evenodd"
   d="M 0.293,131.529 C 0.085,131.349 -0.059,131.041 0.022,130.752 L 0.215,130.678 C 0.134,131.096 0.441,131.397 0.665,131.526 C 0.667,131.525 0.503,131.607 0.293,131.529 z"
   id="path212"
   style="fill:#2e499e;fill-rule:evenodd" />
			<linearGradient
   id="XMLID_52_"
   gradientUnits="userSpaceOnUse"
   x1="0.18700001"
   y1="129.19141"
   x2="63.144001"
   y2="129.19141">
				<stop
   offset="0"
   style="stop-color:#76A5D8"
   id="stop215" />
				<stop
   offset="0.45"
   style="stop-color:#DAE3EC"
   id="stop217" />
				<stop
   offset="1"
   style="stop-color:#3F87C7"
   id="stop219" />
			</linearGradient>
			<path
   d="M 62.56,135.275 C 48.228,125.63 33.375,118.263 0.686,131.545 C 0.461,131.412 0.119,131.092 0.199,130.67 C 33.391,116.541 48.812,124.795 63.144,134.443 C 62.998,134.955 62.718,135.146 62.56,135.275 z"
   id="path221"
   style="fill:url(#XMLID_52_)" />
			<path
   clip-rule="evenodd"
   d="M 1.615,132.232 C 33.079,119.931 47.182,126.63 61.507,135.853 C 52.927,130.33 44.097,125.908 31.913,125.833 C 23.759,125.786 14.122,127.856 2.062,132.532 C 2.062,132.533 1.813,132.439 1.615,132.232 z"
   id="path223"
   style="fill:#313c7e;fill-rule:evenodd" />
			<path
   clip-rule="evenodd"
   d="M 62.577,135.271 L 61.418,135.876 C 47.093,126.653 32.595,120.278 1.681,132.274 L 0.659,131.528 C 33.348,118.244 48.246,125.623 62.577,135.271 z"
   id="path225"
   style="fill:#2e499e;fill-rule:evenodd" />
			<path
   clip-rule="evenodd"
   d="M 63.115,134.459 L 79.642,77.892 C 79.819,78.015 79.913,78.111 80.005,78.216 L 63.463,134.853 C 63.37,134.615 63.115,134.459 63.115,134.459 z"
   id="path227"
   style="fill:#313c7e;fill-rule:evenodd" />
			<path
   clip-rule="evenodd"
   d="M 79.635,77.919 C 65.317,68.215 49.168,61.191 16.232,74.634 C 16.314,74.353 16.381,74.22 16.381,74.22 C 49.462,60.542 65.437,67.804 79.754,77.509 L 79.635,77.919 z"
   id="path229"
   style="fill:#3f87c7;fill-rule:evenodd" />
			<g
   id="g231">
				<defs
   id="defs233">
					<path
   id="XMLID_16_"
   d="M 63.135,134.475 C 48.804,124.827 33.267,117.01 0.193,130.682 L 16.238,74.603 C 49.317,60.923 65.345,68.203 79.664,77.906 L 63.135,134.475 z" />
				</defs>
				<clipPath
   id="XMLID_53_">
					<use
   xlink:href="#XMLID_16_"
   id="use237"
   x="0"
   y="0"
   width="812.04401"
   height="152.966" />
				</clipPath>
				<g
   clip-path="url(#XMLID_53_)"
   id="g239">
					<g
   id="g241">
						<linearGradient
   id="XMLID_54_"
   gradientUnits="userSpaceOnUse"
   x1="70.161102"
   y1="110.9561"
   x2="10.6821"
   y2="93.900703">
							<stop
   offset="0"
   style="stop-color:#2E499E"
   id="stop244" />
							<stop
   offset="0.4"
   style="stop-color:#4496D1"
   id="stop246" />
							<stop
   offset="0.725"
   style="stop-color:#A5CDED"
   id="stop248" />
							<stop
   offset="1"
   style="stop-color:#007FC4"
   id="stop250" />
						</linearGradient>
						<path
   d="M 63.141,134.596 C 48.81,124.951 33.231,117.018 0.157,130.694 L 16.352,74.127 C 49.433,60.449 65.325,68.189 79.642,77.893 L 63.141,134.596 z"
   id="path252"
   style="fill:url(#XMLID_54_)" />
						<path
   d="M 63.141,134.596 C 48.81,124.951 33.231,117.018 0.157,130.694 L 16.352,74.127 C 49.433,60.449 65.325,68.189 79.642,77.893 L 63.141,134.596 z"
   id="path254"
   style="fill:none" />
					</g>
				</g>
			</g>
			<path
   clip-rule="evenodd"
   d="M 79.749,77.505 L 79.776,77.521 C 79.98,77.666 80.063,77.947 80.005,78.216 L 79.993,78.251 C 79.902,78.147 79.807,78.048 79.631,77.925 L 79.749,77.505 z"
   id="path256"
   style="fill:#313c7e;fill-rule:evenodd" />
		</g>
		<linearGradient
   id="XMLID_55_"
   gradientUnits="userSpaceOnUse"
   x1="16.246599"
   y1="74.212402"
   x2="16.246599"
   y2="74.620598">
			<stop
   offset="0"
   style="stop-color:#76A5D8"
   id="stop259" />
			<stop
   offset="1"
   style="stop-color:#2E499E"
   id="stop261" />
		</linearGradient>
		<path
   clip-rule="evenodd"
   d="M 16.265,74.621 L 16.084,74.568 C 16.153,74.33 16.316,74.248 16.381,74.22 L 16.408,74.212 C 16.409,74.212 16.348,74.337 16.265,74.621 z"
   id="path263"
   style="fill:url(#XMLID_55_);fill-rule:evenodd" />
	</g>
	<g
   id="g265">
		<path
   clip-rule="evenodd"
   d="M 81.828,68.497 C 66.43,57.811 47.556,51.1 19.527,65.029 L 20.673,65.838 C 51.3,53.321 67.278,60.096 80.714,68.946 L 81.828,68.497 z"
   id="path267"
   style="fill:#d75329;fill-rule:evenodd" />
		<path
   clip-rule="evenodd"
   d="M 82.368,67.668 L 98.638,11.494 C 98.814,11.614 98.9,11.73 98.993,11.834 L 82.716,68.056 C 82.623,67.82 82.368,67.668 82.368,67.668 z"
   id="path269"
   style="fill:#ab4533;fill-rule:evenodd" />
		<path
   clip-rule="evenodd"
   d="M 20.683,65.82 C 25.895,63.682 30.722,62.095 35.201,61.006 C 36.287,60.743 37.252,60.505 38.398,60.284 C 39.453,60.074 40.495,59.869 41.514,59.719 C 43.111,59.475 44.66,59.274 46.168,59.158 C 47.458,59.056 48.713,58.981 49.942,58.97 C 51.13,58.956 52.291,58.972 53.425,59.037 C 54.435,59.095 55.423,59.168 56.396,59.283 C 57.218,59.379 58.022,59.48 58.817,59.617 C 60.496,59.905 62.118,60.259 63.686,60.704 C 70.018,62.495 75.642,65.548 80.813,68.996 C 80.779,69.012 80.655,68.96 80.601,68.931 C 80.551,68.907 80.528,68.905 80.484,68.875 C 73.493,64.443 65.982,60.589 56.714,59.452 C 47.228,58.286 36.174,59.919 21.281,65.83 C 21.281,65.83 20.934,65.977 20.802,66.001 C 20.683,66.02 20.705,65.929 20.683,65.82 z"
   id="path271"
   style="fill:#ab4533;fill-rule:evenodd" />
		<path
   d="M 81.802,68.487 C 81.802,68.487 82.023,68.642 82.273,68.585 L 81.246,69.038 C 80.969,69.119 80.64,68.948 80.64,68.948 L 81.802,68.487 z"
   id="path273"
   style="fill:#ab4533" />
		<path
   d="M 20.697,65.83 C 20.697,65.83 20.76,65.935 20.802,66.003 C 20.701,66.017 20.689,66.043 20.44,65.932 C 20.407,65.919 20.357,65.878 20.316,65.86 L 19.253,65.024 L 19.157,64.945 C 19.302,64.935 19.413,65.005 19.486,64.991 L 20.697,65.83 z"
   id="path275"
   style="fill:#ab4533" />
		<path
   d="M 82.379,67.67 C 82.493,67.746 82.629,67.791 82.724,68.027 C 82.661,68.326 82.407,68.476 82.265,68.586 C 82.013,68.657 81.764,68.463 81.764,68.463 C 81.923,68.336 82.215,68.156 82.379,67.67 z"
   id="path277"
   style="fill:#d75329" />
		<path
   clip-rule="evenodd"
   d="M 98.747,11.129 L 98.767,11.141 C 98.968,11.285 99.052,11.567 98.994,11.834 L 98.984,11.87 C 98.89,11.765 98.83,11.661 98.646,11.522 L 98.747,11.129 z"
   id="path279"
   style="fill:#d75329;fill-rule:evenodd" />
		<path
   clip-rule="evenodd"
   d="M 19.179,64.975 C 19.025,64.854 18.87,64.381 18.95,64.093 L 19.166,64.018 C 19.086,64.435 19.344,64.91 19.568,65.039 C 19.569,65.039 19.411,65.128 19.179,64.975 z"
   id="path281"
   style="fill:#d75329;fill-rule:evenodd" />
		<g
   id="g283">
			<defs
   id="defs285">
				<path
   id="XMLID_20_"
   d="M 35.432,7.781 L 35.25,7.729 C 35.32,7.491 35.484,7.406 35.548,7.379 L 35.575,7.371 C 35.576,7.372 35.515,7.497 35.432,7.781 z" />
			</defs>
			<clipPath
   id="XMLID_56_">
				<use
   xlink:href="#XMLID_20_"
   id="use289"
   x="0"
   y="0"
   width="812.04401"
   height="152.966" />
			</clipPath>
			
				<rect
   x="35.25"
   y="7.3720002"
   clip-path="url(#XMLID_56_)"
   clip-rule="evenodd"
   width="0.32499999"
   height="0.024"
   id="rect291"
   style="fill:#faaa4f;fill-rule:evenodd" />
			
				<rect
   x="35.25"
   y="7.3959999"
   clip-path="url(#XMLID_56_)"
   clip-rule="evenodd"
   width="0.32499999"
   height="0.027000001"
   id="rect293"
   style="fill:#f6a34c;fill-rule:evenodd" />
			
				<rect
   x="35.25"
   y="7.4229999"
   clip-path="url(#XMLID_56_)"
   clip-rule="evenodd"
   width="0.32499999"
   height="0.024"
   id="rect295"
   style="fill:#f39d48;fill-rule:evenodd" />
			
				<rect
   x="35.25"
   y="7.448"
   clip-path="url(#XMLID_56_)"
   clip-rule="evenodd"
   width="0.32499999"
   height="0.027000001"
   id="rect297"
   style="fill:#f09745;fill-rule:evenodd" />
			
				<rect
   x="35.25"
   y="7.4749999"
   clip-path="url(#XMLID_56_)"
   clip-rule="evenodd"
   width="0.32499999"
   height="0.025"
   id="rect299"
   style="fill:#ed9142;fill-rule:evenodd" />
			
				<rect
   x="35.25"
   y="7.5"
   clip-path="url(#XMLID_56_)"
   clip-rule="evenodd"
   width="0.32499999"
   height="0.024"
   id="rect301"
   style="fill:#eb8c3f;fill-rule:evenodd" />
			
				<rect
   x="35.25"
   y="7.5250001"
   clip-path="url(#XMLID_56_)"
   clip-rule="evenodd"
   width="0.32499999"
   height="0.025"
   id="rect303"
   style="fill:#e8863c;fill-rule:evenodd" />
			
				<rect
   x="35.25"
   y="7.5500002"
   clip-path="url(#XMLID_56_)"
   clip-rule="evenodd"
   width="0.32499999"
   height="0.024"
   id="rect305"
   style="fill:#e68139;fill-rule:evenodd" />
			
				<rect
   x="35.25"
   y="7.5749998"
   clip-path="url(#XMLID_56_)"
   clip-rule="evenodd"
   width="0.32499999"
   height="0.025"
   id="rect307"
   style="fill:#e57b37;fill-rule:evenodd" />
			
				<rect
   x="35.25"
   y="7.5999999"
   clip-path="url(#XMLID_56_)"
   clip-rule="evenodd"
   width="0.32499999"
   height="0.025"
   id="rect309"
   style="fill:#e27634;fill-rule:evenodd" />
			
				<rect
   x="35.25"
   y="7.625"
   clip-path="url(#XMLID_56_)"
   clip-rule="evenodd"
   width="0.32499999"
   height="0.026000001"
   id="rect311"
   style="fill:#e07132;fill-rule:evenodd" />
			
				<rect
   x="35.25"
   y="7.652"
   clip-path="url(#XMLID_56_)"
   clip-rule="evenodd"
   width="0.32499999"
   height="0.025"
   id="rect313"
   style="fill:#df6b30;fill-rule:evenodd" />
			
				<rect
   x="35.25"
   y="7.677"
   clip-path="url(#XMLID_56_)"
   clip-rule="evenodd"
   width="0.32499999"
   height="0.024"
   id="rect315"
   style="fill:#dc662e;fill-rule:evenodd" />
			
				<rect
   x="35.25"
   y="7.7020001"
   clip-path="url(#XMLID_56_)"
   clip-rule="evenodd"
   width="0.32499999"
   height="0.027000001"
   id="rect317"
   style="fill:#db602c;fill-rule:evenodd" />
			
				<rect
   x="35.25"
   y="7.7290001"
   clip-path="url(#XMLID_56_)"
   clip-rule="evenodd"
   width="0.32499999"
   height="0.024"
   id="rect319"
   style="fill:#d95a2a;fill-rule:evenodd" />
			
				<rect
   x="35.25"
   y="7.7529998"
   clip-path="url(#XMLID_56_)"
   clip-rule="evenodd"
   width="0.32499999"
   height="0.027000001"
   id="rect321"
   style="fill:#d75329;fill-rule:evenodd" />
		</g>
		<linearGradient
   id="XMLID_57_"
   gradientUnits="userSpaceOnUse"
   x1="19.1108"
   y1="62.3535"
   x2="82.387199"
   y2="62.3535">
			<stop
   offset="0"
   style="stop-color:#FAAB4F"
   id="stop324" />
			<stop
   offset="0.25"
   style="stop-color:#FAAB4F"
   id="stop326" />
			<stop
   offset="0.475"
   style="stop-color:#FCC193"
   id="stop328" />
			<stop
   offset="0.525"
   style="stop-color:#FCC193"
   id="stop330" />
			<stop
   offset="0.75"
   style="stop-color:#F89C3E"
   id="stop332" />
			<stop
   offset="1"
   style="stop-color:#F89C3E"
   id="stop334" />
		</linearGradient>
		<path
   d="M 81.798,68.491 C 72.984,62.729 64.733,57.959 51.668,57.583 C 42.114,57.772 34.79,58.989 19.555,65.04 C 19.33,64.912 19.045,64.593 19.124,64.174 C 32.315,58.557 42.787,56.134 51.478,56.219 C 64.638,56.35 73.761,61.856 82.387,67.659 C 82.241,68.167 81.957,68.362 81.798,68.491 z"
   id="path336"
   style="fill:url(#XMLID_57_)" />
		<path
   clip-rule="evenodd"
   d="M 35.255,7.719 L 35.406,7.767 L 19.161,64.155 C 19.124,64.139 18.951,64.093 18.951,64.093 L 35.255,7.719 z"
   id="path338"
   style="fill:#d75329;fill-rule:evenodd" />
		<path
   clip-rule="evenodd"
   d="M 98.641,11.559 C 84.333,1.864 68.303,-5.622 35.39,7.811 C 35.474,7.529 35.548,7.379 35.548,7.379 C 68.607,-6.288 84.455,1.442 98.766,11.141 L 98.641,11.559 z"
   id="path340"
   style="fill:#f89c3e;fill-rule:evenodd" />
		<linearGradient
   id="XMLID_58_"
   gradientUnits="userSpaceOnUse"
   x1="89.186501"
   y1="44.528801"
   x2="29.653999"
   y2="27.458099">
			<stop
   offset="0"
   style="stop-color:#CD2B2B"
   id="stop343" />
			<stop
   offset="0.4"
   style="stop-color:#F2692A"
   id="stop345" />
			<stop
   offset="0.725"
   style="stop-color:#FCB544"
   id="stop347" />
			<stop
   offset="1"
   style="stop-color:#F37237"
   id="stop349" />
		</linearGradient>
		<path
   d="M 82.392,67.68 C 73.764,61.87 64.485,56.447 51.307,56.347 C 42.612,56.28 32.262,58.75 19.123,64.183 L 35.406,7.761 C 68.465,-5.908 84.344,1.828 98.651,11.525 L 82.392,67.68 z"
   id="path351"
   style="fill:url(#XMLID_58_)" />
	</g>
	<g
   id="g353">
		<linearGradient
   id="XMLID_59_"
   gradientUnits="userSpaceOnUse"
   x1="137.6787"
   y1="144.4785"
   x2="137.34171"
   y2="145.7364">
			<stop
   offset="0"
   style="stop-color:#D4A52E"
   id="stop356" />
			<stop
   offset="1"
   style="stop-color:#A87C3C"
   id="stop358" />
		</linearGradient>
		<path
   clip-rule="evenodd"
   d="M 137.993,145.178 C 137.833,145.475 137.544,145.651 137.448,145.701 C 137.427,145.713 137.413,145.713 137.413,145.713 C 137.413,145.713 137.138,145.748 136.888,145.549 C 137.533,145.197 137.724,144.49 137.724,144.49 C 137.724,144.49 138.096,144.807 137.993,145.178 z"
   id="path360"
   style="fill:url(#XMLID_59_);fill-rule:evenodd" />
		<path
   clip-rule="evenodd"
   d="M 137.993,145.178 C 138.032,144.858 137.688,144.588 137.688,144.588 L 153.356,89.975 C 153.356,89.975 153.618,90.205 153.69,90.377 L 137.993,145.178 z"
   id="path362"
   style="fill:#d4a52e;fill-rule:evenodd" />
		<linearGradient
   id="XMLID_60_"
   gradientUnits="userSpaceOnUse"
   x1="153.5293"
   y1="89.365196"
   x2="153.5293"
   y2="90.400398">
			<stop
   offset="0.0056"
   style="stop-color:#C19236"
   id="stop365" />
			<stop
   offset="1"
   style="stop-color:#D4A52E"
   id="stop367" />
		</linearGradient>
		<path
   clip-rule="evenodd"
   d="M 153.68,90.4 C 153.68,90.4 153.629,90.244 153.348,90.009 C 153.477,89.478 153.387,89.364 153.387,89.364 L 153.412,89.38 C 153.413,89.381 153.825,89.76 153.68,90.4 z"
   id="path369"
   style="fill:url(#XMLID_60_);fill-rule:evenodd" />
		<linearGradient
   id="XMLID_61_"
   gradientUnits="userSpaceOnUse"
   x1="151.23"
   y1="88.141602"
   x2="151.8813"
   y2="89.225601">
			<stop
   offset="0.0056"
   style="stop-color:#FFCD02"
   id="stop372" />
			<stop
   offset="1"
   style="stop-color:#A87C3C"
   id="stop374" />
		</linearGradient>
		<path
   clip-rule="evenodd"
   d="M 152.118,89.084 C 152.118,89.084 151.684,88.557 150.802,88.721 C 150.849,88.522 150.923,88.28 151.204,88.166 C 151.737,88.084 151.993,88.225 152.106,88.334 C 152.17,88.4 152.188,88.447 152.188,88.447 C 152.258,88.76 152.118,89.084 152.118,89.084 z"
   id="path376"
   style="fill:url(#XMLID_61_);fill-rule:evenodd" />
		<linearGradient
   id="XMLID_62_"
   gradientUnits="userSpaceOnUse"
   x1="152.9268"
   y1="88.972702"
   x2="152.52811"
   y2="89.4478">
			<stop
   offset="0.0056"
   style="stop-color:#FFCD02"
   id="stop379" />
			<stop
   offset="1"
   style="stop-color:#A87C3C"
   id="stop381" />
		</linearGradient>
		<path
   clip-rule="evenodd"
   d="M 152.106,88.334 L 153.413,89.381 C 153.489,89.736 153.349,90.088 153.349,90.088 L 152.048,89.045 C 152.047,89.045 152.176,88.646 152.106,88.334 z"
   id="path383"
   style="fill:url(#XMLID_62_);fill-rule:evenodd" />
		<polygon
   clip-rule="evenodd"
   points="136.288,143.584 152.042,88.963 153.372,90.025 137.723,144.619 137.661,144.768 136.288,143.584 "
   id="polygon385"
   style="fill:#a87c3c;fill-rule:evenodd" />
		<linearGradient
   id="XMLID_63_"
   gradientUnits="userSpaceOnUse"
   x1="136.3667"
   y1="143.90331"
   x2="134.9541"
   y2="143.8046">
			<stop
   offset="0"
   style="stop-color:#C19236"
   id="stop388" />
			<stop
   offset="1"
   style="stop-color:#FFCD02"
   id="stop390" />
		</linearGradient>
		<path
   d="M 135.516,144.564 C 135.516,144.564 134.887,144.001 135,143.169 C 135.848,142.954 136.395,143.489 136.395,143.489 C 136.395,143.489 136.239,144.248 135.516,144.564 z"
   id="path392"
   style="fill:url(#XMLID_63_)" />
		<path
   d="M 150.856,88.775 C 117.68,100.076 102.415,93.322 88.102,83.689 C 88.136,83.56 88.224,83.349 88.127,83.111 C 102.44,92.744 118.27,99.322 151.203,88.166 C 150.954,88.338 150.922,88.572 150.856,88.775 z"
   id="path394"
   style="fill:#ffcd02" />
		<polygon
   clip-rule="evenodd"
   points="85.601,84.389 86.778,83.533 70.757,139.26 69.513,140.244 69.516,140.111 85.601,84.389 "
   id="polygon396"
   style="fill:#d4a52e;fill-rule:evenodd" />
		<linearGradient
   id="XMLID_64_"
   gradientUnits="userSpaceOnUse"
   x1="80.171402"
   y1="111.6348"
   x2="78.692902"
   y2="111.2108">
			<stop
   offset="0"
   style="stop-color:#D4A52E"
   id="stop399" />
			<stop
   offset="0.1"
   style="stop-color:#D4A52E"
   id="stop401" />
			<stop
   offset="0.2"
   style="stop-color:#FFC222"
   id="stop403" />
			<stop
   offset="0.35"
   style="stop-color:#FFC222"
   id="stop405" />
			<stop
   offset="1"
   style="stop-color:#D4A52E"
   id="stop407" />
		</linearGradient>
		<path
   d="M 72.12,139.525 C 71.653,139.248 71.109,139.037 70.663,139.216 L 86.726,83.556 C 86.976,83.451 87.57,83.286 88.179,83.712 L 72.12,139.525 z"
   id="path409"
   style="fill:url(#XMLID_64_)" />
		<linearGradient
   id="XMLID_65_"
   gradientUnits="userSpaceOnUse"
   x1="144.2988"
   y1="116.2773"
   x2="142.89819"
   y2="115.8757">
			<stop
   offset="0"
   style="stop-color:#A87C3C"
   id="stop412" />
			<stop
   offset="1"
   style="stop-color:#FFD200"
   id="stop414" />
		</linearGradient>
		<path
   d="M 135.04,143.283 L 150.798,88.701 C 150.827,88.693 150.866,88.654 150.892,88.65 C 151.73,88.564 152.119,89.009 152.119,89.009 L 136.404,143.505 C 136.403,143.506 135.739,142.99 135.04,143.283 z"
   id="path416"
   style="fill:url(#XMLID_65_)" />
		<path
   clip-rule="evenodd"
   d="M 137.448,145.701 C 105.052,159.549 84.272,151.033 69.959,141.396 L 70.109,141.271 C 84.422,150.904 106.448,158.927 136.887,145.49 C 137.139,145.689 137.448,145.701 137.448,145.701 z"
   id="path418"
   style="fill:#a87c3c;fill-rule:evenodd" />
		<linearGradient
   id="XMLID_66_"
   gradientUnits="userSpaceOnUse"
   x1="136.95461"
   y1="143.748"
   x2="136.2509"
   y2="145.32851">
			<stop
   offset="0"
   style="stop-color:#C19236"
   id="stop421" />
			<stop
   offset="1"
   style="stop-color:#D4A52E"
   id="stop423" />
		</linearGradient>
		<path
   clip-rule="evenodd"
   d="M 136.393,143.498 L 137.727,144.619 C 137.727,144.619 137.547,145.267 136.825,145.584 L 135.47,144.459 C 136.192,144.143 136.393,143.498 136.393,143.498 z"
   id="path425"
   style="fill:url(#XMLID_66_);fill-rule:evenodd" />
		<linearGradient
   id="XMLID_67_"
   gradientUnits="userSpaceOnUse"
   x1="71.436996"
   y1="145.625"
   x2="135.6938"
   y2="145.625">
			<stop
   offset="0"
   style="stop-color:#D4A52E"
   id="stop428" />
			<stop
   offset="0.4"
   style="stop-color:#FFD200"
   id="stop430" />
			<stop
   offset="1"
   style="stop-color:#D4A52E"
   id="stop432" />
		</linearGradient>
		<path
   d="M 135.196,143.154 C 135.083,143.986 135.694,144.588 135.694,144.588 C 102.657,158.252 85.737,150.061 71.437,140.369 C 71.689,140.185 71.812,140.025 71.973,139.447 C 71.994,139.459 72.194,139.427 72.214,139.439 C 86.975,148.529 105.868,155.713 135.196,143.154 z"
   id="path434"
   style="fill:url(#XMLID_67_)" />
		<path
   clip-rule="evenodd"
   d="M 70.115,141.326 L 71.437,140.369 C 84.554,148.549 102.938,157.51 135.551,144.424 L 136.899,145.549 C 106.586,158.975 84.428,150.963 70.115,141.326 z"
   id="path436"
   style="fill:#c19236;fill-rule:evenodd" />
		<path
   clip-rule="evenodd"
   d="M 70.227,141.369 L 70.077,141.474 C 70.077,141.474 69.207,140.994 69.516,140.111 C 69.587,140.982 70.227,141.369 70.227,141.369 z"
   id="path438"
   style="fill:#d4a52e;fill-rule:evenodd" />
		<linearGradient
   id="XMLID_68_"
   gradientUnits="userSpaceOnUse"
   x1="70.992203"
   y1="140.8633"
   x2="69.9571"
   y2="139.7137">
			<stop
   offset="0"
   style="stop-color:#D4A52E"
   id="stop441" />
			<stop
   offset="0.1"
   style="stop-color:#D4A52E"
   id="stop443" />
			<stop
   offset="0.7"
   style="stop-color:#FFD200"
   id="stop445" />
			<stop
   offset="1"
   style="stop-color:#D4A52E"
   id="stop447" />
		</linearGradient>
		<path
   d="M 69.516,140.111 L 70.758,139.095 C 70.69,140.005 71.571,140.341 71.571,140.341 L 70.207,141.384 C 70.208,141.385 69.447,141.018 69.516,140.111 z"
   id="path449"
   style="fill:url(#XMLID_68_)" />
		<linearGradient
   id="XMLID_69_"
   gradientUnits="userSpaceOnUse"
   x1="71.022499"
   y1="138.93359"
   x2="71.754898"
   y2="140.2549">
			<stop
   offset="0"
   style="stop-color:#D4A52E"
   id="stop452" />
			<stop
   offset="0.4"
   style="stop-color:#FFC222"
   id="stop454" />
			<stop
   offset="0.8"
   style="stop-color:#FFCD02"
   id="stop456" />
			<stop
   offset="1"
   style="stop-color:#D4A52E"
   id="stop458" />
		</linearGradient>
		<path
   d="M 70.666,139.131 C 71.111,138.951 71.528,139.162 71.997,139.436 C 71.834,140.018 71.736,140.221 71.484,140.405 C 71.19,140.229 70.591,139.869 70.666,139.131 z"
   id="path460"
   style="fill:url(#XMLID_69_)" />
		<g
   id="g462">
			<defs
   id="defs464">
				<path
   id="XMLID_35_"
   d="M 88.131,83.682 C 102.444,93.315 117.953,99.991 150.891,88.651 L 135.188,143.229 C 106.208,155.971 86.647,148.319 71.987,139.459 L 88.131,83.682 z" />
			</defs>
			<clipPath
   id="XMLID_70_">
				<use
   xlink:href="#XMLID_35_"
   id="use468"
   x="0"
   y="0"
   width="812.04401"
   height="152.966" />
			</clipPath>
			<linearGradient
   id="XMLID_71_"
   gradientUnits="userSpaceOnUse"
   x1="140.96581"
   y1="123.625"
   x2="81.422997"
   y2="106.5514">
				<stop
   offset="0"
   style="stop-color:#FFC907"
   id="stop471" />
				<stop
   offset="0.1667"
   style="stop-color:#FFD200"
   id="stop473" />
				<stop
   offset="0.3333"
   style="stop-color:#FFD952"
   id="stop475" />
				<stop
   offset="0.625"
   style="stop-color:#FFCD02"
   id="stop477" />
				<stop
   offset="1"
   style="stop-color:#B77A36"
   id="stop479" />
			</linearGradient>
			<path
   clip-path="url(#XMLID_70_)"
   d="M 88.226,83.334 C 102.539,92.971 118.438,100.647 151.469,86.994 L 135.188,143.228 C 102.151,156.892 86.285,149.154 71.987,139.458 L 88.226,83.334 z"
   id="path481"
   style="fill:url(#XMLID_71_)" />
			<path
   clip-path="url(#XMLID_70_)"
   d="M 88.226,83.334 C 102.539,92.971 118.438,100.647 151.469,86.994 L 135.188,143.228 C 102.151,156.892 86.285,149.154 71.987,139.458 L 88.226,83.334 z"
   id="path483"
   style="fill:none" />
		</g>
		<path
   clip-rule="evenodd"
   d="M 86.933,83.182 L 86.763,83.58 L 85.585,84.432 C 85.661,84.077 86.569,83.42 86.849,83.225 C 86.886,83.197 86.933,83.182 86.933,83.182 z"
   id="path485"
   style="fill:#ffcd02;fill-rule:evenodd" />
		<linearGradient
   id="XMLID_72_"
   gradientUnits="userSpaceOnUse"
   x1="88.188004"
   y1="83.368202"
   x2="86.717003"
   y2="83.265297">
			<stop
   offset="0"
   style="stop-color:#FFC222"
   id="stop488" />
			<stop
   offset="0.2"
   style="stop-color:#FFC222"
   id="stop490" />
			<stop
   offset="0.525"
   style="stop-color:#FFD200"
   id="stop492" />
			<stop
   offset="1"
   style="stop-color:#D4A52E"
   id="stop494" />
		</linearGradient>
		<path
   d="M 88.133,83.686 C 87.476,83.303 86.94,83.534 86.69,83.643 C 86.729,83.522 86.864,83.217 86.864,83.217 C 87.396,82.877 87.638,82.877 88.135,83.115 C 88.231,83.35 88.168,83.537 88.133,83.686 z"
   id="path496"
   style="fill:url(#XMLID_72_)" />
	</g>
</g>
</svg>